<svg xmlns="http://www.w3.org/2000/svg" xmlns:xlink="http://www.w3.org/1999/xlink" width="500" zoomAndPan="magnify" viewBox="0 0 375 374.999991" height="500" preserveAspectRatio="xMidYMid meet" version="1.0"><defs><clipPath id="b67774056a"><path d="M 114.796875 110.472656 L 264.796875 110.472656 L 264.796875 260.472656 L 114.796875 260.472656 Z M 114.796875 110.472656 " clip-rule="nonzero"/></clipPath></defs><path fill="#121113" d="M 189.796875 168.847656 C 180.640625 168.847656 173.171875 176.316406 173.171875 185.472656 C 173.171875 194.628906 180.640625 202.097656 189.796875 202.097656 C 198.953125 202.097656 206.417969 194.628906 206.417969 185.472656 C 206.417969 176.316406 198.953125 168.847656 189.796875 168.847656 Z M 189.796875 168.847656 " fill-opacity="1" fill-rule="nonzero"/><path fill="#121113" d="M 212.132812 144.695312 L 167.457031 144.695312 C 157.328125 144.695312 149.015625 152.941406 149.015625 163.136719 L 149.015625 207.808594 C 149.015625 217.941406 157.261719 226.25 167.457031 226.25 L 212.132812 226.25 C 222.261719 226.25 230.574219 218.003906 230.574219 207.808594 L 230.574219 163.136719 C 230.511719 152.941406 222.261719 144.695312 212.132812 144.695312 Z M 189.796875 210.472656 C 175.964844 210.472656 164.730469 199.238281 164.730469 185.40625 C 164.730469 171.578125 175.964844 160.34375 189.796875 160.34375 C 203.628906 160.34375 214.859375 171.578125 214.859375 185.40625 C 214.796875 199.238281 203.5625 210.472656 189.796875 210.472656 Z M 216.613281 164.5625 C 213.300781 164.5625 210.574219 161.835938 210.574219 158.523438 C 210.574219 155.214844 213.300781 152.484375 216.613281 152.484375 C 219.925781 152.484375 222.652344 155.214844 222.652344 158.523438 C 222.652344 161.902344 219.992188 164.5625 216.613281 164.5625 Z M 216.613281 164.5625 " fill-opacity="1" fill-rule="nonzero"/><g clip-path="url(#b67774056a)"><path fill="#121113" d="M 189.796875 110.472656 C 148.367188 110.472656 114.796875 144.042969 114.796875 185.472656 C 114.796875 226.902344 148.367188 260.472656 189.796875 260.472656 C 231.222656 260.472656 264.796875 226.902344 264.796875 185.472656 C 264.730469 144.042969 231.160156 110.472656 189.796875 110.472656 Z M 238.953125 207.808594 C 238.953125 222.617188 226.875 234.695312 212.070312 234.695312 L 167.457031 234.695312 C 152.652344 234.695312 140.574219 222.617188 140.574219 207.808594 L 140.574219 163.136719 C 140.574219 148.328125 152.652344 136.25 167.457031 136.25 L 212.132812 136.25 C 226.9375 136.25 239.015625 148.328125 239.015625 163.136719 L 239.015625 207.808594 Z M 238.953125 207.808594 " fill-opacity="1" fill-rule="nonzero"/></g></svg>