<svg xmlns="http://www.w3.org/2000/svg" xmlns:xlink="http://www.w3.org/1999/xlink" width="500" zoomAndPan="magnify" viewBox="0 0 375 374.999991" height="500" preserveAspectRatio="xMidYMid meet" version="1.0"><defs><clipPath id="8401a81cc3"><path d="M 112.5 112.5 L 262.5 112.5 L 262.5 262.5 L 112.5 262.5 Z M 112.5 112.5 " clip-rule="nonzero"/></clipPath></defs><g clip-path="url(#8401a81cc3)"><path fill="#222725" d="M 187.5 112.5 C 146.070312 112.5 112.5 146.070312 112.5 187.5 C 112.5 228.929688 146.070312 262.5 187.5 262.5 C 228.929688 262.5 262.5 228.929688 262.5 187.5 C 262.5 146.070312 228.929688 112.5 187.5 112.5 Z M 143.371094 157.140625 C 143.398438 157.109375 143.460938 157.078125 143.488281 157.050781 C 143.519531 157.019531 143.550781 157.019531 143.578125 156.988281 C 143.640625 156.960938 143.671875 156.929688 143.730469 156.898438 C 143.761719 156.871094 143.789062 156.871094 143.851562 156.839844 C 143.910156 156.808594 143.941406 156.78125 144 156.78125 C 144.03125 156.75 144.058594 156.75 144.121094 156.71875 C 144.179688 156.691406 144.210938 156.691406 144.269531 156.660156 C 144.300781 156.660156 144.359375 156.628906 144.390625 156.628906 C 144.449219 156.601562 144.480469 156.601562 144.539062 156.570312 C 144.570312 156.570312 144.628906 156.539062 144.660156 156.539062 C 144.71875 156.511719 144.78125 156.511719 144.839844 156.511719 C 144.871094 156.511719 144.898438 156.480469 144.960938 156.480469 C 145.019531 156.480469 145.078125 156.449219 145.140625 156.449219 C 145.171875 156.449219 145.199219 156.449219 145.230469 156.449219 C 145.320312 156.449219 145.410156 156.449219 145.53125 156.449219 L 230.820312 156.449219 C 230.910156 156.449219 231 156.449219 231.121094 156.449219 C 231.148438 156.449219 231.179688 156.449219 231.210938 156.449219 C 231.269531 156.449219 231.328125 156.480469 231.390625 156.480469 C 231.421875 156.480469 231.449219 156.511719 231.511719 156.511719 C 231.570312 156.511719 231.628906 156.539062 231.691406 156.539062 C 231.71875 156.539062 231.78125 156.570312 231.808594 156.570312 C 231.871094 156.601562 231.929688 156.601562 231.960938 156.628906 C 231.988281 156.628906 232.050781 156.660156 232.078125 156.660156 C 232.140625 156.691406 232.171875 156.691406 232.230469 156.71875 C 232.261719 156.75 232.289062 156.75 232.351562 156.78125 C 232.410156 156.808594 232.441406 156.839844 232.5 156.839844 C 232.53125 156.871094 232.558594 156.871094 232.621094 156.898438 C 232.679688 156.929688 232.710938 156.960938 232.769531 156.988281 C 232.800781 157.019531 232.828125 157.019531 232.859375 157.050781 C 232.921875 157.078125 232.949219 157.109375 232.980469 157.140625 C 233.011719 157.171875 233.039062 157.171875 233.039062 157.199219 L 190.589844 199.589844 C 189.929688 200.25 189.058594 200.609375 188.160156 200.609375 C 187.230469 200.609375 186.359375 200.25 185.730469 199.589844 L 143.308594 157.199219 C 143.339844 157.171875 143.339844 157.171875 143.371094 157.140625 Z M 142.019531 165.691406 L 163.890625 187.558594 L 142.019531 209.429688 Z M 230.789062 218.640625 L 145.53125 218.640625 C 144.71875 218.640625 143.941406 218.339844 143.339844 217.859375 L 168.75 192.449219 L 180.78125 204.480469 C 182.730469 206.429688 185.339844 207.511719 188.101562 207.511719 C 190.859375 207.511719 193.46875 206.429688 195.421875 204.480469 L 207.511719 192.390625 L 232.949219 217.828125 C 232.410156 218.339844 231.628906 218.640625 230.789062 218.640625 Z M 234.238281 209.308594 L 212.460938 187.5 L 234.269531 165.691406 L 234.269531 209.308594 Z M 234.238281 209.308594 " fill-opacity="1" fill-rule="nonzero"/></g></svg>