<svg xmlns="http://www.w3.org/2000/svg" xmlns:xlink="http://www.w3.org/1999/xlink" width="500" zoomAndPan="magnify" viewBox="0 0 375 374.999991" height="500" preserveAspectRatio="xMidYMid meet" version="1.0"><defs><clipPath id="7302f45fa6"><path d="M 116.359375 111.851562 L 266.359375 111.851562 L 266.359375 261.851562 L 116.359375 261.851562 Z M 116.359375 111.851562 " clip-rule="nonzero"/></clipPath></defs><g clip-path="url(#7302f45fa6)"><path fill="#000000" d="M 191.359375 111.851562 C 190.132812 111.851562 188.90625 111.882812 187.679688 111.941406 C 186.453125 112.003906 185.230469 112.09375 184.007812 112.214844 C 182.785156 112.332031 181.570312 112.484375 180.355469 112.664062 C 179.140625 112.84375 177.933594 113.054688 176.726562 113.292969 C 175.523438 113.53125 174.328125 113.800781 173.136719 114.101562 C 171.945312 114.398438 170.761719 114.726562 169.589844 115.082031 C 168.414062 115.4375 167.25 115.824219 166.09375 116.238281 C 164.9375 116.648438 163.792969 117.089844 162.660156 117.5625 C 161.523438 118.03125 160.402344 118.527344 159.292969 119.054688 C 158.183594 119.578125 157.085938 120.128906 156.003906 120.707031 C 154.921875 121.285156 153.855469 121.890625 152.800781 122.523438 C 151.75 123.152344 150.710938 123.808594 149.691406 124.492188 C 148.671875 125.175781 147.667969 125.878906 146.683594 126.613281 C 145.695312 127.34375 144.730469 128.097656 143.78125 128.875 C 142.832031 129.65625 141.902344 130.457031 140.992188 131.28125 C 140.082031 132.105469 139.195312 132.953125 138.328125 133.820312 C 137.457031 134.6875 136.613281 135.574219 135.789062 136.484375 C 134.964844 137.394531 134.164062 138.324219 133.382812 139.273438 C 132.605469 140.222656 131.851562 141.1875 131.117188 142.175781 C 130.386719 143.160156 129.679688 144.164062 129 145.183594 C 128.316406 146.207031 127.660156 147.242188 127.03125 148.292969 C 126.398438 149.347656 125.792969 150.414062 125.214844 151.496094 C 124.636719 152.582031 124.085938 153.675781 123.558594 154.785156 C 123.035156 155.894531 122.539062 157.015625 122.070312 158.152344 C 121.597656 159.285156 121.15625 160.429688 120.742188 161.585938 C 120.332031 162.742188 119.945312 163.90625 119.589844 165.082031 C 119.234375 166.253906 118.90625 167.4375 118.605469 168.628906 C 118.308594 169.820312 118.039062 171.015625 117.800781 172.21875 C 117.5625 173.425781 117.351562 174.632812 117.171875 175.847656 C 116.992188 177.0625 116.839844 178.28125 116.722656 179.5 C 116.601562 180.722656 116.511719 181.945312 116.449219 183.171875 C 116.390625 184.398438 116.359375 185.625 116.359375 186.851562 C 116.359375 188.078125 116.390625 189.304688 116.449219 190.53125 C 116.511719 191.757812 116.601562 192.980469 116.722656 194.203125 C 116.839844 195.425781 116.992188 196.644531 117.171875 197.855469 C 117.351562 199.070312 117.5625 200.28125 117.800781 201.484375 C 118.039062 202.6875 118.308594 203.886719 118.605469 205.074219 C 118.90625 206.265625 119.234375 207.449219 119.589844 208.625 C 119.945312 209.796875 120.332031 210.964844 120.742188 212.121094 C 121.15625 213.273438 121.597656 214.417969 122.070312 215.554688 C 122.539062 216.6875 123.035156 217.808594 123.558594 218.917969 C 124.085938 220.027344 124.636719 221.125 125.214844 222.207031 C 125.792969 223.289062 126.398438 224.355469 127.03125 225.410156 C 127.660156 226.464844 128.316406 227.5 129 228.519531 C 129.679688 229.539062 130.386719 230.542969 131.117188 231.53125 C 131.851562 232.515625 132.605469 233.484375 133.382812 234.433594 C 134.164062 235.378906 134.964844 236.308594 135.789062 237.21875 C 136.613281 238.128906 137.457031 239.015625 138.328125 239.886719 C 139.195312 240.753906 140.082031 241.597656 140.992188 242.421875 C 141.902344 243.246094 142.832031 244.050781 143.78125 244.828125 C 144.730469 245.605469 145.695312 246.363281 146.683594 247.09375 C 147.667969 247.824219 148.671875 248.53125 149.691406 249.210938 C 150.710938 249.894531 151.75 250.550781 152.800781 251.183594 C 153.855469 251.8125 154.921875 252.417969 156.003906 252.996094 C 157.085938 253.574219 158.183594 254.125 159.292969 254.652344 C 160.402344 255.175781 161.523438 255.671875 162.660156 256.144531 C 163.792969 256.613281 164.9375 257.054688 166.09375 257.46875 C 167.25 257.882812 168.414062 258.265625 169.589844 258.621094 C 170.761719 258.980469 171.945312 259.304688 173.136719 259.605469 C 174.328125 259.902344 175.523438 260.171875 176.726562 260.410156 C 177.933594 260.652344 179.140625 260.859375 180.355469 261.039062 C 181.570312 261.222656 182.785156 261.371094 184.007812 261.492188 C 185.230469 261.613281 186.453125 261.703125 187.679688 261.761719 C 188.90625 261.824219 190.132812 261.851562 191.359375 261.851562 C 192.585938 261.851562 193.8125 261.824219 195.039062 261.761719 C 196.265625 261.703125 197.488281 261.613281 198.710938 261.492188 C 199.933594 261.371094 201.148438 261.222656 202.363281 261.039062 C 203.578125 260.859375 204.789062 260.652344 205.992188 260.410156 C 207.195312 260.171875 208.390625 259.902344 209.582031 259.605469 C 210.773438 259.304688 211.957031 258.980469 213.132812 258.621094 C 214.304688 258.265625 215.46875 257.882812 216.625 257.46875 C 217.78125 257.054688 218.925781 256.613281 220.0625 256.144531 C 221.195312 255.671875 222.316406 255.175781 223.425781 254.652344 C 224.535156 254.125 225.632812 253.574219 226.714844 252.996094 C 227.796875 252.417969 228.863281 251.8125 229.917969 251.183594 C 230.96875 250.550781 232.007812 249.894531 233.027344 249.210938 C 234.046875 248.53125 235.050781 247.824219 236.035156 247.09375 C 237.023438 246.363281 237.992188 245.605469 238.9375 244.828125 C 239.886719 244.050781 240.816406 243.246094 241.726562 242.421875 C 242.636719 241.597656 243.523438 240.753906 244.394531 239.886719 C 245.261719 239.015625 246.105469 238.128906 246.929688 237.21875 C 247.753906 236.308594 248.558594 235.378906 249.335938 234.433594 C 250.113281 233.484375 250.867188 232.515625 251.601562 231.53125 C 252.332031 230.542969 253.039062 229.539062 253.71875 228.519531 C 254.402344 227.5 255.058594 226.464844 255.6875 225.410156 C 256.320312 224.355469 256.925781 223.289062 257.503906 222.207031 C 258.082031 221.125 258.632812 220.027344 259.160156 218.917969 C 259.683594 217.808594 260.179688 216.6875 260.652344 215.554688 C 261.121094 214.417969 261.5625 213.273438 261.976562 212.121094 C 262.390625 210.964844 262.773438 209.796875 263.128906 208.625 C 263.488281 207.449219 263.8125 206.265625 264.113281 205.074219 C 264.410156 203.886719 264.679688 202.6875 264.917969 201.484375 C 265.15625 200.28125 265.367188 199.070312 265.546875 197.855469 C 265.726562 196.644531 265.878906 195.425781 266 194.203125 C 266.117188 192.980469 266.210938 191.757812 266.269531 190.53125 C 266.328125 189.304688 266.359375 188.078125 266.359375 186.851562 C 266.359375 185.625 266.328125 184.398438 266.269531 183.171875 C 266.207031 181.945312 266.117188 180.722656 265.996094 179.5 C 265.878906 178.28125 265.726562 177.0625 265.546875 175.847656 C 265.367188 174.632812 265.15625 173.425781 264.917969 172.222656 C 264.675781 171.015625 264.410156 169.820312 264.109375 168.628906 C 263.8125 167.4375 263.484375 166.257812 263.128906 165.082031 C 262.773438 163.90625 262.386719 162.742188 261.972656 161.585938 C 261.558594 160.429688 261.117188 159.285156 260.648438 158.152344 C 260.179688 157.019531 259.679688 155.898438 259.15625 154.789062 C 258.632812 153.679688 258.078125 152.582031 257.5 151.5 C 256.921875 150.417969 256.316406 149.347656 255.6875 148.296875 C 255.054688 147.242188 254.398438 146.207031 253.71875 145.1875 C 253.035156 144.167969 252.328125 143.164062 251.597656 142.175781 C 250.867188 141.191406 250.109375 140.222656 249.332031 139.277344 C 248.554688 138.328125 247.753906 137.398438 246.929688 136.488281 C 246.105469 135.578125 245.257812 134.691406 244.390625 133.820312 C 243.523438 132.953125 242.632812 132.109375 241.722656 131.285156 C 240.816406 130.460938 239.886719 129.65625 238.9375 128.878906 C 237.988281 128.101562 237.019531 127.347656 236.035156 126.613281 C 235.050781 125.882812 234.046875 125.175781 233.023438 124.496094 C 232.003906 123.8125 230.96875 123.15625 229.914062 122.527344 C 228.863281 121.894531 227.796875 121.289062 226.710938 120.710938 C 225.628906 120.132812 224.535156 119.582031 223.425781 119.054688 C 222.316406 118.53125 221.195312 118.035156 220.058594 117.5625 C 218.925781 117.09375 217.78125 116.652344 216.625 116.238281 C 215.46875 115.824219 214.304688 115.441406 213.128906 115.085938 C 211.957031 114.726562 210.773438 114.398438 209.582031 114.101562 C 208.390625 113.804688 207.195312 113.535156 205.992188 113.296875 C 204.785156 113.054688 203.578125 112.84375 202.363281 112.664062 C 201.148438 112.484375 199.933594 112.335938 198.710938 112.214844 C 197.488281 112.09375 196.265625 112.003906 195.039062 111.941406 C 193.8125 111.882812 192.585938 111.851562 191.359375 111.851562 Z M 236.875 219.3125 C 236.394531 220.117188 235.875 220.894531 235.316406 221.648438 C 234.761719 222.402344 234.171875 223.128906 233.546875 223.828125 C 232.921875 224.523438 232.265625 225.191406 231.578125 225.828125 C 230.886719 226.464844 230.171875 227.066406 229.425781 227.632812 C 228.683594 228.203125 227.914062 228.734375 227.117188 229.230469 C 226.320312 229.722656 225.503906 230.179688 224.667969 230.597656 C 223.828125 231.015625 222.972656 231.394531 222.097656 231.730469 C 221.222656 232.070312 220.335938 232.363281 219.433594 232.617188 C 218.53125 232.871094 217.621094 233.082031 216.699219 233.246094 C 215.777344 233.414062 214.847656 233.535156 213.914062 233.617188 C 212.980469 233.695312 212.046875 233.730469 211.109375 233.722656 C 210.171875 233.710938 209.238281 233.65625 208.308594 233.558594 C 207.375 233.460938 206.449219 233.320312 205.53125 233.136719 C 204.613281 232.949219 203.707031 232.722656 202.808594 232.453125 C 201.914062 232.179688 201.03125 231.867188 200.164062 231.511719 C 199.296875 231.160156 198.449219 230.765625 197.617188 230.328125 C 186.984375 224.773438 177.421875 217.757812 168.929688 209.28125 C 160.433594 200.765625 153.410156 191.171875 147.859375 180.5 C 147.425781 179.671875 147.035156 178.824219 146.683594 177.957031 C 146.332031 177.089844 146.019531 176.210938 145.753906 175.316406 C 145.484375 174.417969 145.257812 173.511719 145.074219 172.597656 C 144.890625 171.679688 144.75 170.757812 144.65625 169.828125 C 144.558594 168.894531 144.507812 167.964844 144.5 167.027344 C 144.492188 166.09375 144.53125 165.160156 144.609375 164.230469 C 144.691406 163.296875 144.816406 162.371094 144.984375 161.453125 C 145.152344 160.53125 145.363281 159.621094 145.617188 158.722656 C 145.871094 157.824219 146.167969 156.9375 146.503906 156.066406 C 146.84375 155.195312 147.222656 154.339844 147.640625 153.503906 C 148.058594 152.667969 148.515625 151.855469 149.011719 151.0625 C 149.507812 150.269531 150.039062 149.5 150.605469 148.757812 C 151.175781 148.015625 151.777344 147.300781 152.414062 146.617188 C 153.050781 145.929688 153.714844 145.277344 154.414062 144.652344 C 155.109375 144.03125 155.835938 143.441406 156.589844 142.886719 C 157.34375 142.335938 158.121094 141.816406 158.921875 141.335938 C 159.457031 141.015625 160.015625 140.75 160.601562 140.542969 C 161.1875 140.332031 161.785156 140.179688 162.402344 140.089844 C 163.015625 139.996094 163.636719 139.964844 164.257812 139.996094 C 164.878906 140.023438 165.492188 140.113281 166.09375 140.265625 C 166.699219 140.414062 167.28125 140.621094 167.84375 140.886719 C 168.40625 141.152344 168.9375 141.46875 169.441406 141.839844 C 169.941406 142.207031 170.398438 142.621094 170.820312 143.082031 C 171.238281 143.542969 171.609375 144.039062 171.929688 144.570312 L 178.023438 154.765625 C 178.207031 155.074219 178.371094 155.394531 178.515625 155.71875 C 178.660156 156.046875 178.789062 156.382812 178.898438 156.722656 C 179.003906 157.066406 179.09375 157.414062 179.164062 157.765625 C 179.234375 158.117188 179.28125 158.46875 179.3125 158.828125 C 179.339844 159.183594 179.351562 159.542969 179.339844 159.898438 C 179.328125 160.257812 179.296875 160.613281 179.246094 160.96875 C 179.195312 161.324219 179.121094 161.675781 179.03125 162.023438 C 178.941406 162.367188 178.832031 162.707031 178.703125 163.042969 C 178.574219 163.378906 178.425781 163.703125 178.257812 164.019531 C 178.09375 164.339844 177.910156 164.644531 177.710938 164.941406 C 177.507812 165.238281 177.292969 165.523438 177.058594 165.796875 C 176.828125 166.070312 176.578125 166.328125 176.316406 166.574219 C 176.054688 166.816406 175.78125 167.046875 175.492188 167.261719 C 175.203125 167.472656 174.90625 167.671875 174.597656 167.851562 C 174.285156 168.03125 173.96875 168.191406 173.640625 168.335938 C 173.3125 168.480469 172.976562 168.605469 172.632812 168.710938 C 172.164062 168.847656 171.714844 169.039062 171.285156 169.277344 C 170.859375 169.515625 170.464844 169.800781 170.101562 170.132812 C 169.738281 170.460938 169.417969 170.828125 169.140625 171.230469 C 168.863281 171.632812 168.632812 172.0625 168.449219 172.519531 C 168.269531 172.972656 168.144531 173.445312 168.070312 173.929688 C 167.996094 174.414062 167.976562 174.898438 168.015625 175.386719 C 168.050781 175.875 168.144531 176.355469 168.292969 176.820312 C 168.4375 177.289062 168.636719 177.734375 168.882812 178.15625 C 172.722656 184.550781 177.277344 190.386719 182.546875 195.664062 C 187.832031 200.953125 193.683594 205.515625 200.101562 209.351562 C 200.925781 209.855469 201.820312 210.152344 202.785156 210.242188 C 203.746094 210.332031 204.679688 210.207031 205.585938 209.867188 C 206.59375 209.492188 207.449219 208.902344 208.160156 208.097656 C 208.871094 207.292969 209.347656 206.367188 209.59375 205.320312 C 209.707031 204.988281 209.839844 204.660156 209.988281 204.339844 C 210.136719 204.023438 210.304688 203.710938 210.488281 203.410156 C 210.675781 203.109375 210.875 202.820312 211.089844 202.542969 C 211.308594 202.265625 211.539062 202 211.785156 201.746094 C 212.03125 201.492188 212.289062 201.253906 212.5625 201.03125 C 212.835938 200.808594 213.117188 200.597656 213.414062 200.40625 C 213.710938 200.214844 214.015625 200.039062 214.328125 199.878906 C 214.644531 199.722656 214.96875 199.582031 215.296875 199.457031 C 215.628906 199.335938 215.964844 199.230469 216.308594 199.148438 C 216.648438 199.0625 216.996094 198.996094 217.34375 198.949219 C 217.695312 198.902344 218.046875 198.875 218.398438 198.867188 C 218.75 198.859375 219.101562 198.871094 219.453125 198.902344 C 219.804688 198.933594 220.152344 198.984375 220.5 199.054688 C 220.84375 199.125 221.1875 199.214844 221.523438 199.324219 C 221.855469 199.429688 222.1875 199.558594 222.507812 199.703125 C 222.828125 199.847656 223.140625 200.007812 223.445312 200.1875 L 233.640625 206.28125 C 234.171875 206.605469 234.667969 206.976562 235.128906 207.398438 C 235.585938 207.820312 236 208.28125 236.371094 208.78125 C 236.738281 209.28125 237.054688 209.816406 237.320312 210.378906 C 237.585938 210.941406 237.792969 211.527344 237.941406 212.132812 C 238.089844 212.734375 238.179688 213.347656 238.210938 213.972656 C 238.242188 214.59375 238.210938 215.210938 238.117188 215.828125 C 238.027344 216.445312 237.878906 217.046875 237.667969 217.632812 C 237.457031 218.21875 237.195312 218.777344 236.875 219.3125 Z M 236.875 219.3125 " fill-opacity="1" fill-rule="nonzero"/></g></svg>