<svg xmlns="http://www.w3.org/2000/svg" xmlns:xlink="http://www.w3.org/1999/xlink" width="500" zoomAndPan="magnify" viewBox="0 0 375 374.999991" height="500" preserveAspectRatio="xMidYMid meet" version="1.0"><defs><clipPath id="3e820be6df"><path d="M 99.089844 37.5 L 275.902344 37.5 L 275.902344 351.75 L 99.089844 351.75 Z M 99.089844 37.5 " clip-rule="nonzero"/></clipPath></defs><g clip-path="url(#3e820be6df)"><path fill="#899878" d="M 248.746094 342.402344 C 248.039062 342.21875 247.542969 341.8125 246.800781 341.65625 C 245.785156 343.175781 244.628906 344.554688 243.644531 346.101562 C 245.894531 346.039062 248.386719 346.226562 250.484375 346.007812 C 249.96875 344.738281 249.316406 343.613281 248.746094 342.402344 Z M 248.746094 342.402344 Z M 125.117188 338.054688 C 126.351562 336.964844 127.019531 335.3125 127.828125 333.796875 C 124.898438 334.035156 121.898438 333.851562 119.132812 333.894531 C 121.425781 334.976562 123.085938 336.710938 125.117188 338.054688 Z M 125.117188 338.054688 Z M 130.601562 333.621094 C 130.359375 334.210938 129.945312 334.636719 129.757812 335.28125 C 130.863281 334.777344 131.824219 334.132812 132.90625 333.621094 C 132.925781 333.5 133.058594 333.421875 132.820312 333.4375 C 132.160156 333.578125 131.367188 333.578125 130.601562 333.621094 Z M 130.601562 333.621094 Z M 127.335938 339.714844 C 128.1875 340.753906 129.269531 341.628906 130.285156 342.488281 C 131.332031 343.394531 132.335938 344.300781 133.417969 345.175781 C 134.085938 343.363281 135.789062 341.964844 136.585938 340.085938 C 137.046875 338.992188 137.15625 337.738281 137.523438 336.570312 C 137.886719 335.445312 138.476562 334.210938 138.824219 333.152344 C 138.824219 333.09375 138.816406 333.042969 138.738281 333.066406 C 134.949219 335.289062 130.972656 337.335938 127.335938 339.714844 Z M 127.335938 339.714844 Z M 236.304688 331.675781 C 236.613281 332.527344 236.960938 333.347656 237.308594 334.167969 C 240.628906 335.214844 242.957031 337.269531 246.082031 338.511719 C 246.800781 337.988281 246.289062 337.355469 245.992188 336.753906 C 245.074219 334.875 244.289062 332.691406 243.242188 331.207031 C 240.992188 331.421875 238.675781 331.578125 236.304688 331.675781 Z M 236.304688 331.675781 Z M 245.371094 331.019531 C 246.070312 332.746094 246.964844 334.285156 247.664062 336.023438 C 249.226562 334.285156 250.535156 332.289062 251.933594 330.378906 C 249.671875 330.519531 247.585938 330.84375 245.371094 331.019531 Z M 245.371094 331.019531 Z M 248.941406 338.699219 C 249.300781 339.167969 249.445312 339.855469 249.773438 340.371094 C 251.519531 341.015625 253.367188 341.953125 255.210938 342.675781 C 257.070312 343.40625 259.316406 343.722656 260.289062 345.449219 C 258.816406 346.269531 257.070312 345.417969 255.671875 344.992188 C 254.132812 344.519531 252.65625 343.984375 251.324219 343.503906 C 251.574219 344.464844 252.132812 345.101562 252.425781 346.007812 C 257.242188 346.191406 261.90625 345.964844 266.753906 346.101562 C 263.335938 341.933594 259.558594 336.929688 256.367188 332.046875 C 255.890625 331.316406 255.394531 329.972656 254.710938 330.003906 C 252.578125 332.703125 250.929688 335.867188 248.941406 338.699219 Z M 248.941406 338.699219 Z M 131.804688 331.492188 C 133.910156 331.25 136.5625 331.566406 138.191406 330.84375 C 136.738281 329.578125 135.546875 328.0625 134.140625 326.773438 C 133.386719 328.378906 132.511719 329.839844 131.804688 331.492188 Z M 131.804688 331.492188 Z M 118.03125 332.046875 C 121.578125 331.742188 125.554688 331.863281 129.125 331.578125 C 129.945312 329.710938 131.257812 327.84375 131.824219 326.027344 C 127.597656 328.402344 122.738281 330.144531 118.03125 332.046875 Z M 118.03125 332.046875 Z M 239.667969 323.539062 C 239 323.398438 238.566406 323.035156 237.910156 322.882812 C 236.851562 324.699219 235.585938 326.3125 234.558594 328.160156 C 234.875 328.671875 234.992188 329.382812 235.476562 329.730469 C 237.519531 329.679688 240.117188 329.371094 242.410156 329.273438 C 241.570312 327.285156 240.597656 325.429688 239.667969 323.539062 Z M 239.667969 323.539062 Z M 234.449219 334.167969 C 234.558594 334.320312 234.6875 334.84375 234.992188 334.636719 C 234.746094 333.128906 233.804688 331.523438 233.160156 330.101562 C 232.789062 330.050781 232.101562 330.144531 231.96875 329.632812 C 231.863281 329.035156 232.15625 328.839844 232.15625 328.34375 C 230.671875 326.042969 228.890625 323.550781 227.097656 321.867188 C 229.601562 325.734375 231.773438 330.539062 234.449219 334.167969 Z M 234.449219 334.167969 Z M 138.78125 322.609375 C 137.546875 323.179688 136.226562 323.703125 135.253906 324.640625 C 136.671875 326.640625 138.3125 328.421875 140.136719 330.003906 C 141.71875 327.789062 143.03125 325.363281 144.691406 323.167969 C 146.351562 320.984375 148.285156 319.039062 149.988281 317.152344 C 146.273438 318.941406 142.441406 320.90625 138.78125 322.609375 Z M 138.78125 322.609375 Z M 149.914062 314.933594 C 147.410156 315.488281 143.535156 315.085938 140.476562 315.21875 C 139.480469 317.214844 138.300781 319.039062 137.308594 321.035156 C 141.730469 319.019531 146.1875 317.019531 150.644531 315.03125 C 150.378906 314.738281 150.140625 314.878906 149.914062 314.933594 Z M 149.914062 314.933594 Z M 239.867188 319.839844 C 240.171875 320.449219 240.476562 321.070312 240.785156 321.683594 C 243.554688 322.894531 246.671875 324.019531 249.367188 325.296875 C 250.230469 325.699219 251.386719 326.160156 251.574219 327.230469 C 250.929688 327.964844 249.882812 327.460938 249.171875 327.230469 C 246.847656 326.488281 244.410156 325.242188 242.25 324.742188 C 242.988281 326.171875 243.65625 327.699219 244.453125 329.085938 C 247.5 328.75 250.820312 328.671875 253.980469 328.429688 C 252.535156 325.636719 250.746094 322.917969 249.105469 320.023438 C 247.5 317.171875 245.808594 314.289062 244.332031 311.328125 C 244.332031 311.273438 244.324219 311.21875 244.246094 311.242188 C 242.957031 314.277344 241.328125 316.976562 239.867188 319.839844 Z M 239.867188 319.839844 Z M 133.179688 313.359375 C 135.277344 313.359375 137.363281 313.359375 139.460938 313.359375 C 140.269531 312.007812 141.414062 310.496094 141.882812 309.109375 C 139.078125 310.628906 136.03125 311.898438 133.179688 313.359375 Z M 133.179688 313.359375 Z M 141.589844 313.457031 C 144.320312 313.402344 146.863281 313.546875 149.355469 313.730469 C 147.988281 311.960938 146.1875 309.832031 144.386719 308.183594 C 143.554688 310.039062 142.332031 311.503906 141.589844 313.457031 Z M 141.589844 313.457031 Z M 225.667969 308.367188 C 224.792969 309.011719 221.835938 311.503906 221.035156 309.667969 C 222.882812 308.902344 224.410156 307.332031 225.765625 306.152344 C 226.179688 305.800781 226.855469 305.472656 226.695312 305.136719 C 223.710938 304.511719 220.175781 304.445312 216.710938 304.304688 C 217.652344 305.976562 218.722656 307.453125 219.660156 309.011719 C 220.621094 310.640625 221.300781 312.488281 222.410156 314.015625 C 223.125 314.988281 224.476562 315.761719 225.449219 316.691406 C 228.507812 319.597656 231.214844 322.554688 233.453125 326.128906 C 234.097656 324.609375 235.070312 323.410156 235.695312 321.867188 C 232.527344 320.875 229.839844 319.09375 227.207031 317.433594 C 226.53125 317.007812 224.78125 316.417969 225.089844 315.21875 C 225.484375 313.644531 228.003906 315.359375 228.695312 315.761719 C 231.324219 317.324219 234.207031 318.972656 236.90625 319.925781 C 237.824219 319.113281 236.9375 318.132812 236.460938 317.152344 C 235.429688 315.117188 234.492188 312.792969 233.609375 311.144531 C 231.707031 311.210938 229.949219 311.363281 227.875 311.515625 C 226.390625 311.625 222.914062 312.335938 223.066406 310.585938 C 223.152344 309.613281 224.695312 309.546875 225.570312 309.480469 C 228.039062 309.285156 230.308594 309.328125 232.6875 309.199219 C 232.332031 308.160156 231.804688 307.265625 231.410156 306.238281 C 230.59375 306.042969 229.839844 305.78125 229.007812 305.59375 C 228.070312 306.3125 227.085938 307.320312 225.667969 308.367188 Z M 225.667969 308.367188 Z M 182.042969 303.464844 C 193.050781 302.273438 203.367188 304.261719 211.4375 307.539062 C 211.511719 307.363281 211.175781 307.234375 211.066406 307.167969 C 210.824219 307.035156 210.5625 306.917969 210.320312 306.792969 C 208.847656 306.097656 207.15625 305.003906 205.800781 304.578125 C 203.921875 303.988281 201.542969 303.824219 199.335938 303.5625 C 192.519531 302.734375 184.730469 302.515625 178.257812 303.648438 C 172.027344 304.753906 166.242188 306.917969 161.117188 309.109375 C 159.394531 309.851562 157.25 310.355469 156.574219 312.160156 C 163.519531 307.953125 171.734375 304.589844 182.042969 303.464844 Z M 182.042969 303.464844 Z M 162.910156 300.328125 C 161.839844 302.558594 160.648438 304.675781 159.554688 306.894531 C 166.4375 303.769531 174.234375 301.574219 183.160156 300.503906 C 175.808594 300.605469 169.628906 300.480469 162.910156 300.328125 Z M 162.910156 300.328125 Z M 127.621094 315.949219 C 130.035156 317.839844 131.429688 320.742188 133.695312 322.796875 C 135.277344 320.304688 136.804688 317.75 138.34375 315.21875 C 135.777344 314.988281 132.054688 315.71875 130.492188 314.375 C 130.589844 313.808594 130.503906 313.621094 130.492188 312.988281 C 134.140625 310.28125 138.804688 308.585938 142.824219 306.238281 C 140.910156 304.359375 139.308594 302.1875 137.382812 300.328125 C 134.457031 305.855469 131.027344 310.902344 127.621094 315.949219 Z M 127.621094 315.949219 Z M 159.578125 300.875 C 159.285156 300.898438 159.183594 300.714844 158.847656 300.789062 C 154.882812 302.972656 150.511719 304.742188 146.613281 306.980469 C 148.6875 309.242188 150.445312 311.808594 152.585938 314.015625 C 155.4375 309.351562 158.324219 304.722656 161.433594 300.328125 C 160.351562 300.175781 160.070312 300.363281 159.578125 300.875 Z M 159.578125 300.875 Z M 149.222656 299.773438 C 148.394531 301.3125 147.488281 302.796875 146.710938 304.394531 C 149.769531 302.917969 152.9375 301.542969 155.972656 300.046875 C 154.160156 300.109375 151.65625 299.378906 150.523438 300.414062 C 150.03125 300.253906 150.023438 299.632812 149.222656 299.773438 Z M 149.222656 299.773438 Z M 211.554688 300.230469 C 211.304688 299.9375 211.109375 299.75 210.726562 299.675781 C 208.933594 299.359375 206.207031 300.082031 204.25 299.859375 C 204.007812 300.058594 204.007812 300.496094 203.605469 300.503906 C 203.199219 300.472656 203.125 300.046875 202.675781 299.957031 C 201.050781 299.621094 198.4375 300.523438 196.667969 300.328125 C 196.515625 300.339844 195.828125 300.277344 196.109375 300.414062 C 202.304688 300.953125 208.398438 301.507812 212.191406 304.304688 C 213.382812 305.1875 215.097656 306.195312 215.125 308 C 214.921875 308.445312 214.125 308.292969 213.640625 308.464844 C 215.226562 309 216.285156 310.070312 217.703125 310.773438 C 216.054688 307.285156 213.871094 304.339844 212.199219 300.875 C 212.148438 300.65625 212.066406 300.460938 212.113281 300.144531 C 212.023438 299.914062 211.839844 300.351562 211.554688 300.230469 Z M 211.554688 300.230469 Z M 230.59375 301.714844 C 231.5 300.976562 232.429688 300.261719 233.105469 299.304688 C 231.796875 299.359375 230.636719 299.25 229.402344 299.21875 C 229.707031 300.132812 230.308594 300.777344 230.59375 301.714844 Z M 230.59375 301.714844 Z M 227.460938 299.304688 C 223.679688 299.640625 217.355469 299.019531 213.402344 299.488281 C 214.296875 300.65625 215.097656 301.925781 215.890625 303.191406 C 219.714844 302.164062 225.035156 302.917969 228.550781 303.648438 C 228.988281 303.34375 229.449219 303.058594 229.664062 302.546875 C 228.878906 301.835938 228.679688 299.195312 227.460938 299.304688 Z M 227.460938 299.304688 Z M 239.101562 301.160156 C 238.851562 300.667969 237.902344 298.613281 237.453125 298.472656 C 236.949219 298.320312 236.304688 298.800781 235.878906 298.84375 C 234.535156 300.496094 232.996094 301.957031 231.511719 303.464844 C 231.828125 303.835938 231.949219 304.394531 232.253906 304.765625 C 233.445312 305.1875 234.6875 305.769531 235.757812 306.421875 C 236.820312 307.089844 238 307.8125 238.339844 308.925781 C 236.613281 308.707031 235.050781 307.539062 233.34375 306.980469 C 233.652344 307.789062 234.054688 308.488281 234.449219 309.199219 C 236.140625 309.285156 238.207031 309.089844 239.910156 309.199219 C 240.828125 309.265625 241.941406 309.304688 242.402344 309.941406 C 241.003906 311.230469 237.867188 310.78125 235.464844 311.058594 C 236.394531 313.195312 237.460938 315.207031 238.578125 317.152344 C 240.164062 314.625 241.863281 312.226562 243.417969 309.667969 C 242.007812 307.320312 240.609375 303.976562 239.101562 301.160156 Z M 239.101562 301.160156 Z M 140.167969 299.675781 C 141.820312 301.28125 143.261719 303.136719 144.769531 304.765625 C 145.859375 303.070312 147.039062 301.464844 148.023438 299.675781 C 145.761719 299.609375 142.714844 299.511719 140.898438 299.585938 C 140.484375 298.765625 139.371094 298.65625 138.695312 298.101562 C 138.988281 298.738281 139.632812 299.160156 140.167969 299.675781 Z M 140.167969 299.675781 Z M 163.847656 296.53125 C 164.253906 296.476562 164.898438 296.648438 165.148438 296.441406 C 164.796875 295.644531 164.230469 295.839844 163.847656 296.53125 Z M 163.847656 296.53125 Z M 173.929688 296.441406 C 174.367188 296.441406 174.792969 296.441406 175.230469 296.441406 C 175.140625 296.070312 174.828125 295.917969 174.585938 295.699219 C 174.453125 296.035156 174.007812 296.050781 173.929688 296.441406 Z M 173.929688 296.441406 Z M 144.800781 296.34375 C 145.390625 296.34375 145.980469 296.34375 146.558594 296.34375 C 146.164062 295.230469 145.269531 295.4375 144.800781 296.34375 Z M 144.800781 296.34375 Z M 155.621094 295.054688 C 155.242188 295.566406 154.707031 295.925781 154.421875 296.53125 C 155.339844 296.476562 156.519531 296.660156 157.285156 296.441406 C 156.671875 296.035156 156.277344 295.414062 155.621094 295.054688 Z M 155.621094 295.054688 Z M 222.949219 295.511719 C 223.320312 295.511719 223.691406 295.511719 224.050781 295.511719 C 223.964844 295.1875 223.769531 294.945312 223.503906 294.78125 C 223.332031 295.035156 223.089844 295.230469 222.949219 295.511719 Z M 222.949219 295.511719 Z M 207.230469 295.613281 C 207.65625 295.546875 208.335938 295.730469 208.617188 295.511719 C 208.277344 295.328125 208.117188 294.96875 207.789062 294.78125 C 207.65625 295.109375 207.316406 295.230469 207.230469 295.613281 Z M 207.230469 295.613281 Z M 214.625 295.511719 C 215.082031 295.511719 215.554688 295.511719 216.011719 295.511719 C 215.847656 295.097656 215.621094 294.738281 215.183594 294.597656 C 215.027344 294.933594 214.691406 295.085938 214.625 295.511719 Z M 214.625 295.511719 Z M 186.882812 294.597656 C 186.433594 295.152344 185.726562 295.46875 185.398438 296.167969 C 186.140625 295.992188 187.507812 296.1875 188.457031 295.984375 C 187.867188 295.589844 187.550781 294.914062 186.882812 294.597656 Z M 186.882812 294.597656 Z M 197.980469 294.496094 C 197.664062 294.988281 197.226562 295.347656 196.964844 295.882812 C 197.804688 295.964844 198.363281 295.742188 199.183594 295.796875 C 198.855469 295.292969 198.503906 294.804688 197.980469 294.496094 Z M 197.980469 294.496094 Z M 234.140625 292.925781 C 233.453125 293.722656 232.710938 294.453125 232.101562 295.328125 C 233.402344 295.328125 234.6875 295.328125 235.988281 295.328125 C 235.628906 294.277344 235.082031 293.40625 234.140625 292.925781 Z M 234.140625 292.925781 Z M 139.992188 295.882812 C 140.933594 295.875 141.675781 296.058594 142.496094 296.167969 C 143.128906 295.414062 143.871094 294.757812 144.4375 293.941406 C 143.738281 293.363281 143.128906 292.671875 142.691406 291.824219 C 142.550781 291.480469 143.0625 291.046875 142.605469 290.980469 C 141.796875 292.671875 140.8125 294.203125 139.992188 295.882812 Z M 139.992188 295.882812 Z M 169.886719 290.621094 C 168.71875 292.039062 167.246094 293.164062 165.988281 294.496094 C 166.394531 295.140625 166.753906 295.816406 167.09375 296.53125 C 168.511719 296.507812 170.050781 296.605469 171.339844 296.441406 C 171.863281 295.601562 172.683594 295.066406 173.199219 294.222656 C 172.203125 292.914062 170.90625 291.910156 169.886719 290.621094 Z M 169.886719 290.621094 Z M 208.988281 293.394531 C 209.503906 294.234375 210.222656 294.867188 210.835938 295.613281 C 211.480469 295.613281 212.125 295.613281 212.78125 295.613281 C 213.257812 294.925781 213.640625 294.136719 214.167969 293.480469 C 213.359375 292.324219 212.289062 291.429688 211.871094 289.875 C 210.921875 291.058594 210.035156 292.300781 208.988281 293.394531 Z M 208.988281 293.394531 Z M 164.796875 292.367188 C 165.988281 291.746094 167.148438 290.28125 168.3125 289.320312 C 166.554688 289.386719 164.558594 289.199219 162.953125 289.40625 C 164.066406 289.898438 164.261719 291.308594 164.796875 292.367188 Z M 164.796875 292.367188 Z M 160.363281 289.230469 C 159.71875 291.023438 158.265625 292.007812 157.292969 293.480469 C 158.210938 294.410156 158.976562 295.492188 159.785156 296.53125 C 161.925781 296.683594 162.199219 294.933594 163.300781 294.039062 C 162.480469 292.96875 160.484375 290.457031 162.496094 289.320312 C 161.847656 289.222656 161.128906 289.210938 160.363281 289.230469 Z M 160.363281 289.230469 Z M 151.023438 289.230469 C 150.195312 291.394531 148.304688 292.5 147.027344 294.222656 C 147.585938 294.988281 148.152344 295.742188 148.773438 296.441406 C 149.769531 296.441406 150.753906 296.441406 151.738281 296.441406 C 152.597656 295.578125 153.253906 294.496094 154.0625 293.566406 C 153.589844 292.78125 152.324219 292.019531 152.5 290.621094 C 152.585938 289.933594 153.101562 289.332031 153.984375 289.40625 C 154.96875 289.503906 155.207031 290.53125 155.730469 291.261719 C 156.453125 290.71875 156.957031 289.957031 157.503906 289.230469 C 155.339844 289.230469 153.191406 289.230469 151.023438 289.230469 Z M 151.023438 289.230469 Z M 171.832031 289.40625 C 173.175781 290.160156 173.699219 291.722656 174.78125 292.738281 C 175.9375 291.429688 177.261719 290.28125 178.582031 289.136719 C 176.410156 289.308594 174.007812 289.246094 171.832031 289.40625 Z M 171.832031 289.40625 Z M 180.339844 289.046875 C 179.75 291.722656 177.402344 292.652344 175.972656 294.496094 C 176.726562 294.933594 176.726562 296.070312 177.632812 296.34375 C 179.085938 296.792969 180.941406 295.949219 182.621094 296.253906 C 183.5625 295.21875 184.546875 294.222656 185.410156 293.109375 C 184.304688 291.941406 182.765625 291.199219 182.65625 289.046875 C 181.878906 289.046875 181.117188 289.046875 180.339844 289.046875 Z M 180.339844 289.046875 Z M 224.890625 293.566406 C 225.132812 294.289062 225.535156 294.835938 225.90625 295.425781 C 227.621094 295.4375 229.304688 295.425781 230.898438 295.328125 C 231.148438 293.886719 231.894531 292.925781 232.582031 291.910156 C 231.238281 291.066406 229.796875 290.3125 228.988281 288.949219 C 227.929688 290.804688 226.257812 292.027344 224.890625 293.566406 Z M 224.890625 293.566406 Z M 184.875 289.046875 C 185.476562 290.007812 186.171875 290.882812 186.992188 291.636719 C 187.824219 290.675781 188.785156 289.847656 189.679688 288.949219 C 188.007812 288.917969 186.445312 288.984375 184.875 289.046875 Z M 184.875 289.046875 Z M 144.546875 291.167969 C 144.910156 291.636719 145.390625 291.984375 145.648438 292.554688 C 146.589844 291.953125 147.09375 290.914062 147.96875 290.25 C 147.792969 289.933594 147.714844 289.515625 147.605469 289.136719 C 146.394531 289.199219 145.511719 288.949219 144.375 288.949219 C 144.4375 289.679688 144.605469 290.3125 144.546875 291.167969 Z M 144.546875 291.167969 Z M 192.269531 288.949219 C 191.097656 290.46875 189.777344 291.832031 188.367188 293.109375 C 189.144531 293.710938 190.050781 295.6875 191.042969 295.984375 C 192.007812 296.253906 193.117188 295.773438 194.460938 295.984375 C 195.109375 294.867188 195.925781 293.917969 196.503906 292.738281 C 195.773438 291.472656 194.320312 290.9375 194.398438 288.859375 C 193.664062 288.875 192.59375 288.808594 192.269531 288.949219 Z M 192.269531 288.949219 Z M 202.261719 288.949219 C 201.3125 290.414062 200.140625 291.65625 199.191406 293.109375 C 200.023438 293.699219 200.273438 295.371094 201.398438 295.699219 C 202.578125 296.050781 203.722656 295.425781 205.1875 295.613281 C 205.59375 294.835938 206.183594 294.246094 206.585938 293.480469 C 205.660156 292.585938 202.742188 289.933594 204.578125 288.765625 C 203.78125 288.792969 202.785156 288.644531 202.261719 288.949219 Z M 202.261719 288.949219 Z M 196.242188 288.949219 C 196.765625 289.660156 197.03125 290.632812 197.816406 291.078125 C 198.285156 290.226562 198.996094 289.605469 199.488281 288.765625 C 198.382812 288.808594 197.082031 288.644531 196.242188 288.949219 Z M 196.242188 288.949219 Z M 223.972656 291.824219 C 224.9375 290.839844 225.886719 289.832031 226.757812 288.765625 C 225.351562 288.765625 224.117188 288.574219 222.695312 288.574219 C 223.277344 289.503906 223.703125 290.589844 223.972656 291.824219 Z M 223.972656 291.824219 Z M 204.847656 288.859375 C 206.128906 289.550781 206.671875 290.96875 207.703125 291.910156 C 208.3125 291.078125 209.132812 290.03125 209.839844 289.320312 C 210.070312 289.089844 210.59375 288.875 210.398438 288.574219 C 208.640625 288.765625 206.5625 288.632812 204.847656 288.859375 Z M 204.847656 288.859375 Z M 220.195312 288.488281 C 219.15625 290.292969 217.617188 291.589844 216.394531 293.210938 C 217.148438 293.765625 217.191406 295.207031 218.230469 295.511719 C 219.113281 295.773438 220.117188 295.328125 221.375 295.511719 C 221.746094 294.816406 222.367188 294.34375 222.675781 293.566406 C 221.769531 292.359375 220.46875 290.136719 221.410156 288.488281 C 221.003906 288.488281 220.601562 288.488281 220.195312 288.488281 Z M 220.195312 288.488281 Z M 215.378906 291.449219 C 216.207031 290.488281 216.964844 289.449219 217.792969 288.488281 C 216.40625 288.488281 215.015625 288.488281 213.628906 288.488281 C 214.210938 289.484375 214.921875 290.335938 215.378906 291.449219 Z M 215.378906 291.449219 Z M 232.40625 288.023438 C 232.121094 288.023438 231.96875 288.140625 231.761719 288.207031 C 232.167969 289.253906 232.964844 289.898438 233.597656 290.707031 C 233.410156 289.605469 232.6875 289.035156 232.40625 288.023438 Z M 232.40625 288.023438 Z M 224.46875 285.804688 C 225.011719 285.734375 225.90625 286.011719 226.039062 285.53125 C 225.503906 285.605469 224.847656 285.574219 224.46875 285.804688 Z M 224.46875 285.804688 Z M 229.925781 284.699219 C 230.15625 284.625 230.722656 284.875 230.671875 284.515625 C 230.363281 284.515625 230.101562 284.558594 229.925781 284.699219 Z M 229.925781 284.699219 Z M 164.746094 281.554688 C 164.746094 281.609375 164.746094 281.675781 164.746094 281.742188 C 166.554688 281.828125 169.15625 281.894531 170.753906 281.457031 C 168.710938 281.652344 166.4375 281.09375 164.746094 281.554688 Z M 164.746094 281.554688 Z M 158.265625 281.457031 C 159.21875 281.53125 160.605469 281.785156 161.695312 281.828125 C 162.109375 281.851562 162.996094 282.078125 163.082031 281.457031 C 161.773438 281.007812 159.742188 281.285156 158.179688 281.085938 C 158.167969 281.246094 158.203125 281.378906 158.265625 281.457031 Z M 158.265625 281.457031 Z M 150.414062 280.996094 C 152.074219 280.789062 153.667969 281.617188 154.949219 281.183594 C 153.832031 280.84375 151.417969 280.832031 150.414062 280.996094 Z M 150.414062 280.996094 Z M 222.269531 280.167969 C 224.214844 280.320312 226.804688 280.320312 228.738281 280.167969 C 226.671875 279.882812 224.488281 280.289062 222.269531 280.167969 Z M 222.269531 280.167969 Z M 233.269531 280.910156 C 233.234375 280.386719 233.378906 279.6875 233.09375 279.425781 C 232.984375 280.09375 232.832031 280.515625 233.269531 280.910156 Z M 233.269531 280.910156 Z M 165.027344 278.867188 C 166.664062 279.085938 168.699219 278.902344 170.492188 278.964844 C 170.542969 278.027344 169.539062 278.226562 169.285156 277.480469 C 168.992188 276.582031 169.613281 275.699219 169.769531 274.621094 C 168.195312 274.621094 166.621094 274.621094 165.050781 274.621094 C 165.203125 275.894531 164.949219 277.371094 165.027344 278.867188 Z M 165.027344 278.867188 Z M 173.1875 274.621094 C 173.097656 276.191406 172.402344 277.164062 172.519531 278.964844 C 175.183594 278.945312 177.742188 278.8125 180.382812 278.777344 C 180.328125 277.171875 179.78125 276.0625 179.664062 274.519531 C 177.457031 274.511719 175.285156 274.519531 173.1875 274.621094 Z M 173.1875 274.621094 Z M 157.097656 274.519531 C 157.074219 276.136719 157.503906 277.304688 157.632812 278.777344 C 159.183594 278.957031 161.03125 278.835938 162.722656 278.867188 C 162.789062 277.546875 161.949219 276.324219 162.089844 274.621094 C 160.605469 274.410156 158.738281 274.585938 157.097656 274.519531 Z M 157.097656 274.519531 Z M 204.535156 274.519531 C 204.753906 275.699219 204.980469 276.835938 205.167969 278.035156 C 205.59375 277.992188 206.183594 278.136719 206.46875 277.949219 C 206.300781 276.726562 206.535156 275.121094 205.832031 274.433594 C 205.40625 274.476562 204.820312 274.335938 204.535156 274.519531 Z M 204.535156 274.519531 Z M 198.875 278.226562 C 200.425781 278.289062 201.746094 278.125 203.222656 278.136719 C 203.003906 276.878906 202.601562 275.808594 202.414062 274.519531 C 201.070312 274.566406 199.988281 274.355469 198.613281 274.433594 C 199.277344 275.304688 198.832031 276.890625 198.875 278.226562 Z M 198.875 278.226562 Z M 191.40625 274.433594 C 191.175781 275.582031 190.96875 277.1875 191.207031 278.496094 C 192.964844 278.355469 194.988281 278.464844 196.757812 278.3125 C 196.875 276.835938 195.925781 275.777344 196.496094 274.433594 C 194.789062 274.433594 193.097656 274.433594 191.40625 274.433594 Z M 191.40625 274.433594 Z M 182.992188 274.433594 C 182.664062 275.65625 182.546875 277.085938 182.601562 278.683594 C 184.816406 278.75 186.761719 278.53125 188.980469 278.597656 C 189.023438 277.285156 188.292969 275.972656 188.257812 274.433594 C 186.5 274.433594 184.742188 274.433594 182.992188 274.433594 Z M 182.992188 274.433594 Z M 151.453125 274.433594 C 150.609375 275.808594 149.945312 277.371094 149.222656 278.867188 C 151.34375 278.867188 153.320312 278.714844 155.503906 278.777344 C 155.1875 277.253906 154.671875 275.929688 154.324219 274.433594 C 153.363281 274.433594 152.414062 274.433594 151.453125 274.433594 Z M 151.453125 274.433594 Z M 231.621094 277.296875 C 231.6875 276.429688 230.996094 275.691406 231.359375 274.433594 C 231.105469 274.304688 230.300781 274.257812 230.058594 274.433594 C 230.636719 275.328125 230.824219 276.617188 231.621094 277.296875 Z M 231.621094 277.296875 Z M 219.222656 277.578125 C 221.648438 277.589844 223.988281 277.523438 226.257812 277.390625 C 226.269531 276.179688 226.074219 275.175781 225.710938 274.335938 C 223.40625 274.335938 221.089844 274.335938 218.777344 274.335938 C 219.027344 275.320312 218.960938 276.605469 219.222656 277.578125 Z M 219.222656 277.578125 Z M 208.3125 277.949219 C 211.359375 277.820312 214.441406 277.722656 217.5625 277.667969 C 217.234375 276.277344 216.636719 275.144531 215.730469 274.335938 C 213.476562 274.335938 211.226562 274.335938 208.980469 274.335938 C 208.496094 275.285156 208.476562 276.691406 208.3125 277.949219 Z M 208.3125 277.949219 Z M 142.113281 274.246094 C 142.34375 275.953125 142.746094 277.492188 143.117188 279.054688 C 143.738281 279.066406 144.1875 278.902344 144.878906 278.964844 C 145.695312 277.46875 146.484375 275.929688 147.203125 274.335938 C 145.628906 274.238281 143.5 274.226562 142.113281 274.246094 Z M 142.113281 274.246094 Z M 163.871094 269.34375 C 163.824219 269.34375 163.730469 269.335938 163.683594 269.34375 C 161.46875 270.109375 158.78125 271.167969 156.183594 271.558594 C 156.464844 272.347656 157.21875 272.050781 157.941406 272.03125 C 161.304688 271.898438 165.695312 271.886719 169.308594 271.84375 C 167.738281 270.960938 165.683594 269.582031 163.871094 269.34375 Z M 163.871094 269.34375 Z M 207.054688 269.8125 C 208.148438 269.082031 209.335938 268.449219 210.300781 267.585938 C 209.308594 267.324219 208.585938 266.777344 207.527344 266.570312 C 207.527344 267.800781 207.144531 268.667969 207.054688 269.8125 Z M 207.054688 269.8125 Z M 166.183594 268.425781 C 167.722656 269.398438 169.410156 270.25 170.609375 271.558594 C 171.015625 269.902344 171.429688 268.238281 171.746094 266.480469 C 169.8125 267.050781 168.128906 267.867188 166.183594 268.425781 Z M 166.183594 268.425781 Z M 163.0625 264.265625 C 161.542969 264.332031 159.761719 263.902344 158.617188 264.164062 C 158.179688 264.265625 157.917969 264.960938 157.417969 265 C 157.03125 264.820312 157.351562 264.242188 157.042969 264.164062 C 156.707031 264.101562 156.378906 264.035156 155.941406 264.078125 C 154.792969 266.800781 153.636719 269.507812 152.476562 272.214844 C 153.175781 272.09375 154.378906 272.5 154.519531 271.84375 C 154.53125 271.484375 154.039062 271.449219 154.148438 270.828125 C 154.292969 270.042969 156.105469 269.757812 157.207031 269.445312 C 158.59375 269.039062 159.882812 268.777344 160.539062 268.328125 C 159.578125 267.933594 156.695312 268.328125 156.476562 267.3125 C 156.324219 266.589844 157.316406 266.316406 157.402344 266.296875 C 159.457031 265.871094 162.285156 267.488281 163.695312 267.496094 C 164.285156 267.496094 165.007812 267.070312 165.726562 266.851562 C 167.933594 266.175781 170.203125 265.53125 172.015625 265 C 172.125 264.546875 172.28125 264.132812 172.300781 263.609375 C 169.628906 263.699219 166.199219 264.121094 163.0625 264.265625 Z M 163.0625 264.265625 Z M 221.046875 262.320312 C 219.351562 264.273438 217.300781 265.871094 215.292969 267.496094 C 217.117188 268.65625 220 269.253906 220.644531 271.289062 C 217.640625 271.417969 215.707031 269.691406 213.347656 268.882812 C 211.839844 269.691406 210.441406 270.613281 208.988281 271.472656 C 214.296875 271.484375 219.714844 271.417969 224.890625 271.558594 C 223.679688 268.414062 222.402344 265.324219 221.046875 262.320312 Z M 221.046875 262.320312 Z M 204.761719 262.964844 C 205.144531 264.492188 205.351562 266.195312 205.855469 267.585938 C 205.855469 265.675781 205.605469 263.980469 207.078125 263.792969 C 209.011719 263.554688 211.023438 265.730469 212.519531 266.109375 C 213.890625 265.214844 215.519531 264.15625 216.875 263.238281 C 217.289062 262.964844 218.097656 262.484375 217.988281 262.222656 C 213.652344 262.539062 209.265625 262.8125 204.761719 262.964844 Z M 204.761719 262.964844 Z M 156.496094 262.878906 C 157.109375 262.898438 157.664062 262.867188 158.15625 262.78125 C 160.660156 260.363281 163.410156 258.214844 166.054688 255.941406 C 164.6875 254.589844 163.183594 253.386719 161.992188 251.867188 C 161.925781 252.054688 161.71875 252.25 161.535156 252.054688 C 161.378906 251.777344 161.511719 251.210938 161.171875 251.125 C 159.71875 255.15625 157.972656 258.867188 156.496094 262.878906 Z M 156.496094 262.878906 Z M 162.015625 249.007812 C 161.9375 249.390625 161.75 249.671875 161.628906 250.019531 C 161.96875 249.992188 162.230469 250.03125 162.460938 250.109375 C 164.175781 251.605469 165.410156 253.5625 167.070312 255.101562 C 168.882812 253.921875 170.542969 252.25 172.355469 250.941406 C 172.773438 250.644531 174.167969 249.738281 174.386719 250.753906 C 174.496094 251.234375 173.296875 252.152344 173.089844 252.328125 C 171.351562 253.84375 169.714844 254.960938 168.085938 256.214844 C 169.015625 258.027344 171.15625 259.109375 171.210938 261.488281 C 169.660156 260.203125 168.6875 258.34375 167.058594 257.144531 C 164.746094 258.925781 162.394531 260.683594 160.285156 262.691406 C 164.242188 262.265625 168.347656 261.980469 172.683594 261.949219 C 173.679688 257.472656 174.628906 252.949219 175.699219 248.539062 C 171.351562 248.976562 166.679688 249.433594 162.015625 249.007812 Z M 162.015625 249.007812 Z M 209.699219 255.382812 C 211.21875 256.949219 213.445312 258.28125 213.9375 260.5625 C 211.652344 259.699219 210.320312 257.898438 208.585938 256.488281 C 207.65625 257.042969 207.046875 258.027344 206.257812 258.800781 C 205.539062 259.523438 204.335938 260.179688 204.402344 261.394531 C 209.679688 261.488281 214.972656 260.800781 220.589844 260.933594 C 218.929688 256.816406 217.609375 252.359375 215.828125 248.351562 C 214.089844 250.996094 211.699219 252.992188 209.699219 255.382812 Z M 209.699219 255.382812 Z M 201.78125 247.246094 C 202.445312 251.058594 203.257812 254.742188 203.855469 258.617188 C 204.9375 257.84375 206.105469 256.304688 206.925781 255.101562 C 206.292969 254.371094 205.351562 253.800781 204.433594 252.796875 C 203.800781 252.097656 201.628906 249.640625 203.257812 249.179688 C 204.390625 248.875 205.320312 250.808594 205.832031 251.410156 C 206.671875 252.382812 207.351562 253.125 208.226562 253.8125 C 210.5625 251.355469 212.714844 248.722656 215.46875 246.691406 C 211.132812 246.722656 206.5625 247.347656 201.78125 247.246094 Z M 201.78125 247.246094 Z M 163.585938 247.617188 C 167.222656 247.335938 171.242188 247.433594 174.78125 247.0625 C 173.679688 245.238281 172.519531 243.480469 171.003906 242.070312 C 168.652344 244.035156 165.878906 245.589844 163.585938 247.617188 Z M 163.585938 247.617188 Z M 206.792969 240.683594 C 204.980469 242.289062 203.082031 243.808594 201.417969 245.574219 C 204.707031 245.378906 208.277344 245.445312 211.5 245.304688 C 212.679688 245.25 213.90625 245.546875 214.921875 245.019531 C 211.394531 244.398438 209.445312 242.179688 206.792969 240.683594 Z M 206.792969 240.683594 Z M 178.125 264.539062 C 177.980469 265.707031 177.992188 267.707031 177.652344 268.238281 C 177.382812 268.65625 176.964844 268.371094 176.726562 268.785156 C 176.539062 269.8125 176.265625 270.75 175.972656 271.660156 C 184.140625 271.355469 192.636719 271.898438 200.570312 271.472656 C 196.996094 262.320312 195.804688 250.796875 194.222656 239.65625 C 190.257812 239.535156 186.347656 239.351562 182.292969 239.296875 C 180.679688 246.613281 179.191406 256.085938 178.125 264.539062 Z M 178.125 264.539062 Z M 200.875 243.085938 C 202.316406 241.929688 203.59375 240.617188 204.957031 239.382812 C 203.308594 238.414062 201.453125 237.660156 199.597656 236.882812 C 200.023438 238.957031 200.425781 241.035156 200.875 243.085938 Z M 200.875 243.085938 Z M 163.78125 244.660156 C 165.605469 243.140625 167.507812 241.710938 169.441406 240.3125 C 168.390625 239.078125 167.308594 237.886719 166.21875 236.699219 C 165.507812 239.394531 164.351562 242.125 163.78125 244.660156 Z M 163.78125 244.660156 Z M 172.671875 240.859375 C 174.007812 242.605469 175.230469 244.464844 176.070312 246.691406 C 176.648438 243.238281 177.140625 239.21875 177.601562 235.964844 C 176.125 237.765625 174.234375 239.144531 172.671875 240.859375 Z M 172.671875 240.859375 Z M 207.820312 239.65625 C 209.742188 241.492188 211.675781 243.316406 214.546875 244.191406 C 213.652344 241.40625 212.855469 238.507812 211.90625 235.78125 C 210.628906 237.15625 209.292969 238.476562 207.820312 239.65625 Z M 207.820312 239.65625 Z M 199.707031 234.949219 C 202.371094 235.574219 204.347656 236.894531 206.25 238.269531 C 207.492188 237.011719 209.316406 235.835938 210.332031 234.664062 C 207.316406 235.59375 203.058594 234.25 199.707031 234.949219 Z M 199.707031 234.949219 Z M 166.875 234.480469 C 168.378906 235.933594 169.867188 237.398438 171.296875 238.925781 C 172.519531 237.964844 174.074219 236.917969 175.285156 235.964844 C 175.644531 235.683594 176.363281 235.160156 176.214844 234.949219 C 173.046875 234.753906 169.484375 234.949219 166.972656 234.109375 C 166.996094 234.28125 166.863281 234.316406 166.875 234.480469 Z M 166.875 234.480469 Z M 211.175781 234.207031 C 211.632812 234.339844 211.589844 233.769531 211.261719 233.75 C 211.335938 234 211.132812 233.976562 211.175781 234.207031 Z M 211.175781 234.207031 Z M 193.808594 229.859375 C 192.921875 230.742188 191.625 231.203125 191.109375 232.449219 C 192.453125 232.390625 193.796875 232.363281 195.085938 232.261719 C 195.085938 231.53125 194.890625 230.984375 194.824219 230.320312 C 194.386719 230.265625 194.257812 229.902344 193.808594 229.859375 Z M 193.808594 229.859375 Z M 189.1875 227.175781 C 188.171875 228.296875 187.941406 230.199219 185.757812 230.132812 C 185.136719 230.691406 184.226562 230.960938 183.628906 231.519531 C 183.964844 231.484375 184.25 231.511719 184.273438 231.804688 C 184.304688 232.121094 183.484375 232.4375 183.902344 232.539062 C 186.019531 232.5 188.335938 232.65625 190.183594 232.363281 C 189.425781 230.800781 191.359375 229.75 192.050781 228.746094 C 191.132812 228.203125 190.183594 227.664062 189.1875 227.175781 Z M 189.1875 227.175781 Z M 204.730469 226.902344 C 205.4375 226.253906 206.257812 225.710938 206.957031 225.054688 C 205.550781 225.152344 204.042969 224.878906 202.882812 225.054688 C 203.59375 225.578125 203.8125 226.574219 204.730469 226.902344 Z M 204.730469 226.902344 Z M 167.257812 233.003906 C 167.246094 233.105469 167.289062 233.234375 167.34375 233.09375 C 168.371094 230.601562 171.125 229.835938 172.914062 228.101562 C 171.558594 227.085938 170.367188 225.90625 169.039062 224.867188 C 168.5 227.632812 167.878906 230.320312 167.257812 233.003906 Z M 167.257812 233.003906 Z M 211.175781 232.929688 C 211.175781 232.929688 211.175781 232.917969 211.175781 232.90625 C 210.652344 230.960938 210.09375 228.558594 209.632812 226.441406 C 209.511719 225.90625 209.511719 224.671875 208.714844 224.867188 C 209.492188 226.605469 207.253906 227.402344 206.476562 228.472656 C 207.449219 229.28125 208.96875 229.554688 209.613281 230.691406 C 207.839844 231.226562 206.554688 229.761719 205.175781 229.304688 C 204.085938 230.253906 202.753906 230.953125 201.832031 232.078125 C 205.066406 232 209.335938 231.652344 211.175781 232.929688 Z M 211.273438 233.003906 Z M 195.378906 228.84375 C 195.628906 230.046875 197.097656 230.570312 198.144531 230.417969 C 198.242188 231.609375 196.570312 231.257812 195.925781 230.972656 C 195.914062 231.441406 196.109375 231.695312 196.101562 232.175781 C 197.226562 232.21875 198.101562 232.011719 199.246094 232.078125 C 200.46875 230.582031 201.980469 229.371094 203.332031 228.015625 C 202.335938 227.457031 200.613281 226.398438 201.496094 224.867188 C 200.699219 224.769531 199.816406 224.757812 198.90625 224.769531 C 198.273438 226.667969 196.515625 227.445312 195.378906 228.84375 Z M 195.378906 228.84375 Z M 189.84375 225.054688 C 191.546875 225.316406 192.203125 226.640625 193.347656 227.457031 C 194.332031 226.484375 195.449219 225.65625 196.503906 224.769531 C 194.507812 224.878906 191.855469 224.453125 189.65625 224.769531 C 189.789062 224.800781 189.765625 224.976562 189.84375 225.054688 Z M 189.84375 225.054688 Z M 183.464844 224.585938 C 182.753906 224.574219 181.75 224.179688 181.246094 224.398438 C 179.140625 225.339844 177.542969 227.503906 175.503906 228.558594 C 176.636719 229.480469 177.21875 231.375 179.09375 231.246094 C 177.847656 233.453125 175.449219 229.925781 174.386719 229.304688 C 172.421875 230.546875 170.421875 231.761719 168.632812 233.191406 C 172.125 233.070312 175.644531 232.984375 178.996094 232.722656 C 179.257812 231.871094 179.324219 230.808594 179.46875 229.761719 C 179.609375 228.8125 179.585938 227.480469 180.132812 226.988281 C 180.371094 228.84375 180.132812 231.019531 179.925781 232.722656 C 180.199219 232.722656 180.472656 232.722656 180.753906 232.722656 C 180.4375 231.3125 181.039062 230.539062 181.78125 229.589844 C 182.199219 229.050781 183.28125 228.144531 183.269531 227.917969 C 183.257812 227.71875 182.394531 227.175781 182.164062 226.988281 C 181.726562 226.640625 181.234375 226.449219 181.335938 225.785156 C 181.609375 223.972656 184.480469 226.015625 185.027344 226.527344 C 185.867188 225.820312 186.882812 225.296875 187.722656 224.585938 C 186.066406 224.488281 184.753906 224.628906 183.464844 224.585938 Z M 183.464844 224.585938 Z M 174.398438 227.085938 C 175.589844 226.34375 176.824219 225.621094 177.828125 224.683594 C 177.316406 223.84375 175.523438 224.269531 174.3125 224.125 C 174.289062 224.75 174.3125 225.425781 173.753906 225.515625 C 173.132812 225.339844 172.9375 224.738281 172.835938 224.039062 C 172.234375 223.898438 171.429688 223.960938 170.804688 223.851562 C 171.832031 225.097656 173.230469 225.972656 174.398438 227.085938 Z M 174.398438 227.085938 Z M 180.144531 222.09375 C 179.925781 222.050781 179.09375 221.800781 179.039062 222.179688 C 180 222.238281 182.449219 222.113281 180.144531 222.09375 Z M 180.144531 222.09375 Z M 170.804688 222.179688 C 171.394531 222.179688 171.972656 222.179688 172.5625 222.179688 C 172.367188 221.867188 171.015625 221.898438 170.804688 222.179688 Z M 170.804688 222.179688 Z M 174.421875 221.910156 C 174.804688 222.355469 176.976562 222.355469 177.371094 221.910156 C 176.460938 221.886719 175.285156 221.667969 174.421875 221.910156 Z M 174.421875 221.910156 Z M 198.199219 218.488281 C 198.230469 218.707031 198.023438 218.6875 198.101562 218.949219 C 199.464844 218.941406 200.679688 219.078125 201.988281 219.136719 C 202.089844 217.953125 198.855469 218.488281 198.199219 218.488281 Z M 198.199219 218.488281 Z M 204.292969 218.488281 C 204.214844 218.71875 204.171875 218.984375 204.207031 219.320312 C 205.101562 219.355469 205.941406 219.429688 206.792969 219.507812 C 206.828125 219.296875 206.847656 218.4375 206.519531 218.304688 C 205.84375 218.425781 205.125 218.511719 204.292969 218.488281 Z M 204.292969 218.488281 Z M 190.605469 218.761719 C 191.535156 218.695312 192.703125 218.882812 193.480469 218.664062 C 193.199219 218.140625 190.75 217.976562 190.605469 218.761719 Z M 190.605469 218.761719 Z M 183.3125 218.207031 C 183.3125 218.304688 183.3125 218.390625 183.3125 218.488281 C 183.804688 218.742188 184.675781 218.664062 185.527344 218.664062 C 186.25 218.664062 187.441406 218.882812 187.65625 218.390625 C 186.609375 217.988281 184.597656 218.0625 183.3125 218.207031 Z M 183.3125 218.207031 Z M 179.511719 218.664062 C 179.914062 218.664062 180.320312 218.664062 180.710938 218.664062 C 180.769531 218.371094 180.65625 218.238281 180.625 218.019531 C 180.285156 218.019531 179.949219 218.019531 179.609375 218.019531 C 179.6875 218.347656 179.46875 218.382812 179.511719 218.664062 Z M 179.511719 218.664062 Z M 174.890625 219.222656 C 175.632812 219.265625 176.089844 219.003906 176.835938 219.035156 C 176.769531 218.632812 176.679688 218.273438 176.5625 217.933594 C 175.992188 217.996094 175.722656 217.777344 175.175781 217.835938 C 175.117188 218.347656 174.957031 218.730469 174.890625 219.222656 Z M 174.890625 219.222656 Z M 170.542969 219.59375 C 171.242188 219.625 171.886719 219.582031 172.488281 219.507812 C 172.429688 218.941406 172.3125 218.28125 172.488281 217.75 C 171.808594 217.625 170.914062 217.714844 170.269531 217.558594 C 170.300781 218.292969 170.5625 218.804688 170.542969 219.59375 Z M 170.542969 219.59375 Z M 186.738281 215.34375 C 188.773438 215.160156 190.050781 215.226562 192.015625 215.160156 C 191.636719 213.378906 191.929688 210.941406 190.367188 210.34375 C 189.195312 212.058594 187.855469 213.574219 186.738281 215.34375 Z M 186.738281 215.34375 Z M 177.796875 210.164062 C 176.460938 211.488281 174.59375 213.105469 173.15625 214.328125 C 172.648438 214.742188 171.886719 215.0625 171.941406 215.53125 C 174.988281 215.519531 177.773438 215.257812 180.921875 215.34375 C 181.058594 214.625 181.171875 213.859375 181.292969 213.113281 C 180.132812 212.132812 179.140625 210.964844 177.796875 210.164062 Z M 177.796875 210.164062 Z M 191.109375 209.324219 C 191.066406 209.535156 191.382812 209.839844 191.480469 209.609375 C 191.21875 209.621094 191.589844 208.996094 191.207031 209.140625 C 191.183594 209.214844 191.199219 209.324219 191.109375 209.324219 Z M 191.109375 209.324219 Z M 202.304688 208.953125 C 202.753906 209.707031 203.332031 210.332031 203.867188 211 C 203.527344 210.046875 203.308594 208.976562 202.949219 208.039062 C 202.785156 208.386719 202.546875 208.683594 202.304688 208.953125 Z M 202.304688 208.953125 Z M 185.855469 206.367188 C 185.585938 209.511719 185.199219 212.527344 184.613281 215.34375 C 185.496094 215.628906 185.855469 214.734375 186.195312 214.230469 C 187.285156 212.582031 188.457031 211.050781 189.449219 209.425781 C 188.335938 208.375 187.046875 207.019531 185.855469 206.367188 Z M 185.855469 206.367188 Z M 179.554688 208.78125 C 180.328125 209.359375 180.820312 210.210938 181.671875 210.714844 C 181.71875 209.152344 182.152344 207.480469 182.066406 206.09375 C 181.292969 207.054688 180.242188 207.734375 179.554688 208.78125 Z M 179.554688 208.78125 Z M 196.734375 213.957031 C 197.714844 212.308594 198.875 210.84375 199.890625 209.238281 C 198.484375 207.851562 196.972656 206.5625 195.476562 205.261719 C 195.9375 208.113281 196.386719 210.988281 196.734375 213.957031 Z M 196.734375 213.957031 Z M 170.652344 214.042969 C 172.386719 212.4375 174.496094 210.421875 176.503906 208.78125 C 175.207031 207.328125 173.949219 205.851562 172.539062 204.523438 C 171.90625 207.6875 171.175781 210.757812 170.652344 214.042969 Z M 170.652344 214.042969 Z M 201.203125 207.566406 C 201.453125 206.75 202.46875 206.34375 202.589844 205.449219 C 202.699219 204.707031 202.164062 203.933594 202.230469 202.949219 C 200.1875 202.96875 197.9375 202.683594 195.949219 202.949219 C 198.199219 203.984375 199.433594 206.046875 201.203125 207.566406 Z M 201.203125 207.566406 Z M 186.425781 202.859375 C 186.21875 203.277344 186.226562 203.898438 186.140625 204.433594 C 187.714844 205.558594 188.859375 207.121094 190.28125 208.40625 C 191.699219 207.40625 190.980469 204.761719 190.769531 202.859375 C 189.320312 202.859375 187.867188 202.859375 186.425781 202.859375 Z M 186.425781 202.859375 Z M 176.332031 205.164062 C 176.582031 205.460938 177.949219 207.210938 178.265625 207.210938 C 178.410156 207.210938 179.148438 206.390625 179.378906 206.179688 C 179.738281 205.867188 180.199219 205.425781 180.492188 205.164062 C 181.390625 204.398438 182.316406 204.039062 182.636719 202.949219 C 180.035156 202.792969 176.804688 202.792969 174.214844 202.949219 C 174.980469 203.570312 175.449219 204.148438 176.332031 205.164062 Z M 176.332031 205.164062 Z M 187.996094 201.003906 C 188.859375 201.003906 189.722656 201.003906 190.585938 201.003906 C 190.75 199.34375 190.09375 198.492188 189.121094 197.957031 C 188.816406 199.050781 188.390625 200.011719 187.996094 201.003906 Z M 187.996094 201.003906 Z M 195.03125 201.003906 C 197.269531 200.816406 199.902344 201.003906 201.964844 200.632812 C 201.921875 200.21875 201.800781 199.878906 201.78125 199.429688 C 199.921875 198.65625 198.941406 196.996094 197.644531 195.640625 C 196.765625 197.421875 195.851562 199.167969 195.03125 201.003906 Z M 195.03125 201.003906 Z M 190.324219 197.398438 C 190.191406 196.742188 190.300781 195.835938 190.0625 195.269531 C 189.703125 196.046875 189.527344 197.003906 190.324219 197.398438 Z M 190.324219 197.398438 Z M 186.796875 201.003906 C 186.925781 201.003906 187.046875 201.003906 187.167969 201.003906 C 187.484375 198.949219 189.121094 196.546875 187.285156 195.183594 C 187.132812 197.019531 186.5 199.398438 186.796875 201.003906 Z M 186.796875 201.003906 Z M 180.8125 196.65625 C 179.6875 195.574219 179.019531 194.558594 178.222656 194.253906 C 176.570312 196.691406 173.710938 197.890625 173.023438 201.289062 C 176.265625 201.199219 179.445312 201.046875 182.820312 201.101562 C 183.714844 198.480469 182.285156 198.085938 180.8125 196.65625 Z M 180.8125 196.65625 Z M 173.589844 197.683594 C 174.964844 196.242188 176.308594 194.777344 177.578125 193.238281 C 176.472656 192.339844 175.6875 191.140625 174.640625 190.191406 C 174.300781 192.703125 173.855469 195.09375 173.589844 197.683594 Z M 173.589844 197.683594 Z M 199.324219 192.035156 C 199.074219 192.59375 198.4375 193.511719 198.484375 194.070312 C 198.535156 194.867188 200.25 196.613281 200.6875 197.128906 C 200.941406 197.421875 201.203125 197.902344 201.519531 197.773438 C 200.984375 195.289062 200.730469 192.539062 200.152344 190.09375 C 199.933594 190.78125 199.617188 191.359375 199.324219 192.035156 Z M 199.324219 192.035156 Z M 179.519531 193.054688 C 180.796875 194.398438 181.933594 195.882812 183.300781 197.128906 C 183.59375 194.230469 183.964844 190.933594 184.074219 188.148438 C 182.535156 189.765625 180.984375 191.371094 179.519531 193.054688 Z M 179.519531 193.054688 Z M 175.109375 186.859375 C 174.828125 188.148438 176.058594 188.867188 176.671875 189.632812 C 177.371094 190.507812 178.015625 191.402344 178.789062 192.136719 C 180.132812 190.84375 181.5625 189.175781 182.875 187.875 C 183.300781 187.460938 184.175781 186.957031 183.988281 186.488281 C 181.117188 186.707031 177.957031 186.617188 175.109375 186.859375 Z M 175.109375 186.859375 Z M 188.707031 186.398438 C 188.257812 188.488281 187.984375 190.75 187.570312 192.867188 C 188.03125 193.589844 188.300781 194.472656 188.859375 195.082031 C 189.8125 192.726562 190.082031 189.722656 189.722656 186.488281 C 189.527344 186.3125 189.042969 186.421875 188.707031 186.398438 Z M 188.707031 186.398438 Z M 192.496094 186.304688 C 192.957031 190.148438 193.632812 194.558594 194.484375 198.328125 C 194.8125 197.542969 194.957031 197.003906 195.324219 196.109375 C 195.578125 195.5 196.308594 194.605469 196.253906 193.882812 C 196.234375 193.53125 195.566406 192.636719 195.335938 192.3125 C 194.976562 191.785156 194.648438 191.371094 194.332031 190.835938 C 194.039062 190.355469 192.320312 187.734375 193.785156 187.601562 C 194.585938 187.523438 195.316406 189.101562 195.628906 189.632812 C 196.199219 190.617188 196.515625 191.425781 197.191406 192.035156 C 197.75 189.875 199.617188 188.476562 199.617188 186.117188 C 197.171875 186.105469 194.988281 186.355469 192.496094 186.304688 Z M 192.496094 186.304688 Z M 188.804688 184.457031 C 189.058594 184.457031 189.296875 184.457031 189.550781 184.457031 C 189.515625 183.1875 189.460938 181.953125 189.285156 180.851562 C 188.871094 181.792969 189 183.296875 188.804688 184.457031 Z M 188.804688 184.457031 Z M 198.898438 182.238281 C 197.714844 181.355469 196.453125 180.558594 195.117188 179.824219 C 194.628906 180.65625 193.949219 181.300781 193.347656 182.054688 C 192.847656 182.675781 192.015625 183.386719 192.136719 184.269531 C 194.308594 184.480469 196.765625 184.152344 199.160156 184.269531 C 199.257812 183.757812 198.984375 182.863281 198.898438 182.238281 Z M 198.898438 182.238281 Z M 182.898438 182.054688 C 182.164062 181.289062 181.5 180.4375 180.777344 179.738281 C 180.691406 179.738281 180.667969 179.660156 180.589844 179.652344 C 178.941406 181.046875 177.238281 182.402344 175.589844 183.8125 C 175.601562 184.347656 175.402344 184.683594 175.394531 185.199219 C 178.4375 185.003906 181.445312 184.761719 184.554688 184.640625 C 184.773438 183.363281 183.5625 182.753906 182.898438 182.054688 Z M 182.898438 182.054688 Z M 191.6875 181.582031 C 192.59375 180.886719 193.152344 179.847656 193.820312 178.90625 C 192.898438 178.285156 192.09375 177.566406 191.152344 176.964844 C 191.285156 178.546875 191.589844 179.96875 191.6875 181.582031 Z M 191.6875 181.582031 Z M 176.144531 181.3125 C 177.160156 180.253906 178.527344 179.542969 179.402344 178.351562 C 178.417969 177.675781 177.773438 176.660156 176.726562 176.035156 C 176.550781 177.75 176.101562 179.683594 176.144531 181.3125 Z M 176.144531 181.3125 Z M 196.503906 178.164062 C 197.191406 178.65625 197.847656 179.160156 198.625 179.550781 C 198.351562 178.351562 198.460938 176.78125 197.902344 175.851562 C 197.519531 176.710938 196.855469 177.28125 196.503906 178.164062 Z M 196.503906 178.164062 Z M 181.988281 178.4375 C 182.929688 179.5 184 180.917969 185.027344 181.582031 C 185.15625 179.53125 185.648438 177.324219 185.519531 175.304688 C 184.378906 176.398438 183.214844 177.445312 181.988281 178.4375 Z M 181.988281 178.4375 Z M 177.007812 173.820312 C 178.15625 175.140625 179.597656 176.164062 180.886719 177.335938 C 182.292969 176.003906 183.964844 174.921875 185.242188 173.449219 C 182.722656 173.730469 179.457031 173.414062 177.007812 173.820312 Z M 177.007812 173.820312 Z M 190.707031 173.261719 C 191.554688 175.207031 193.535156 176.035156 195.128906 177.238281 C 195.914062 175.894531 197.410156 174.78125 197.542969 173.078125 C 195.449219 172.957031 192.890625 173.175781 190.707031 173.261719 Z M 190.707031 173.261719 Z M 193.960938 167.527344 C 193.871094 167.527344 193.773438 167.527344 193.6875 167.527344 C 192.78125 169.070312 191.328125 170.0625 190.519531 171.691406 C 192.738281 171.558594 194.976562 171.457031 197.269531 171.414062 C 196.582031 169.710938 194.890625 169.003906 193.960938 167.527344 Z M 193.960938 167.527344 Z M 186.183594 170.957031 C 186.007812 169.886719 182.722656 167.832031 182.308594 167.164062 C 180.820312 169.011719 178.933594 170.457031 177.390625 172.246094 C 180.296875 172.171875 183.234375 172.113281 185.988281 171.875 C 186.03125 171.582031 186.226562 171.253906 186.183594 170.957031 Z M 186.183594 170.957031 Z M 194.703125 166.328125 C 195.378906 167.308594 196.191406 168.171875 197.007812 169.011719 C 196.789062 167.441406 196.734375 165.710938 196.375 164.296875 C 195.839844 164.992188 195.304688 165.691406 194.703125 166.328125 Z M 194.703125 166.328125 Z M 190.816406 168.457031 C 191.371094 167.625 192.113281 166.96875 192.585938 166.054688 C 192.0625 165.289062 191.503906 164.546875 190.925781 163.835938 C 190.945312 165.363281 190.605469 167.046875 190.816406 168.457031 Z M 190.816406 168.457031 Z M 177.675781 169.199219 C 178.714844 168.402344 179.949219 167.011719 180.929688 165.867188 C 180.089844 165.015625 179.316406 164.101562 178.257812 163.464844 C 178.210938 165.515625 177.90625 167.320312 177.675781 169.199219 Z M 177.675781 169.199219 Z M 183.703125 165.867188 C 184.664062 166.851562 185.539062 167.910156 186.652344 168.730469 C 187.191406 166.652344 187.691406 164.019531 187.328125 161.332031 C 186.304688 163.027344 184.875 164.328125 183.703125 165.867188 Z M 183.703125 165.867188 Z M 178.636719 160.875 C 178.976562 162.558594 181.234375 163.136719 182.132812 164.566406 C 183.125 163.847656 184.25 162.742188 185.101562 161.890625 C 185.386719 161.609375 185.847656 161.257812 185.757812 160.960938 C 183.332031 161.039062 180.710938 160.832031 178.636719 160.875 Z M 178.636719 160.875 Z M 191.121094 160.777344 C 190.945312 161.007812 191.054688 161.523438 191.023438 161.890625 C 191.882812 162.84375 192.660156 163.890625 193.414062 164.9375 C 193.9375 164.613281 194.375 163.933594 194.898438 163.28125 C 195.523438 162.515625 196.484375 161.785156 196.109375 160.691406 C 194.386719 160.644531 192.890625 160.851562 191.121094 160.777344 Z M 191.121094 160.777344 Z M 182.722656 156.070312 C 182 156.890625 181.074219 157.839844 180.308594 158.558594 C 180.109375 158.746094 179.640625 158.929688 179.847656 159.203125 C 181.828125 159.183594 183.605469 158.953125 185.671875 159.019531 C 184.808594 157.925781 183.824219 156.933594 182.722656 156.070312 Z M 182.722656 156.070312 Z M 193.269531 155.699219 C 192.5625 156.8125 191.644531 157.71875 191.03125 158.929688 C 192.671875 158.929688 194.300781 158.929688 195.9375 158.929688 C 196.003906 158.222656 195.851562 157.730469 195.851562 157.085938 C 194.941406 156.671875 194.234375 156.050781 193.269531 155.699219 Z M 193.269531 155.699219 Z M 190.957031 156.902344 C 191.285156 156.125 191.855469 155.566406 192.160156 154.769531 C 191.613281 154.550781 191.292969 154.105469 190.78125 153.84375 C 190.871094 154.835938 190.574219 156.203125 190.957031 156.902344 Z M 190.957031 156.902344 Z M 194.386719 154.128906 C 194.878906 154.332031 195.128906 154.792969 195.675781 154.957031 C 195.578125 154.136719 195.761719 153.03125 195.414062 152.457031 C 195.117188 153.066406 194.648438 153.492188 194.386719 154.128906 Z M 194.386719 154.128906 Z M 178.921875 158.289062 C 180.066406 157.414062 180.855469 156.203125 181.890625 155.230469 C 181.136719 154.238281 180.253906 153.371094 179.410156 152.457031 C 179.378906 154.53125 179.140625 156.398438 178.921875 158.289062 Z M 178.921875 158.289062 Z M 184.117188 154.769531 C 185.308594 156.039062 186.414062 157.390625 187.34375 158.929688 C 187.144531 156.453125 187.320312 153.601562 187.277344 150.980469 C 187.253906 150.902344 187.199219 150.871094 187.089844 150.878906 C 186.324219 152.414062 185.070312 153.4375 184.117188 154.769531 Z M 184.117188 154.769531 Z M 180.066406 150.148438 C 180.667969 151.417969 182.089844 152.675781 183.191406 153.753906 C 184.140625 152.507812 185.222656 151.394531 186.074219 150.050781 C 184.023438 150.042969 182.164062 150.214844 180.066406 150.148438 Z M 180.066406 150.148438 Z M 190.707031 149.867188 C 190.695312 150.488281 190.695312 151.097656 190.695312 151.722656 C 191.832031 151.941406 192.398438 152.726562 193.285156 153.199219 C 193.851562 151.886719 194.910156 151.070312 195.425781 149.683594 C 193.9375 149.835938 192.160156 149.691406 190.707031 149.867188 Z M 190.707031 149.867188 Z M 181.183594 148.664062 C 183.171875 148.585938 185.015625 148.371094 187.101562 148.390625 C 187.101562 147.902344 187.101562 147.410156 187.109375 146.90625 C 186.054688 145.878906 185.265625 144.570312 184.066406 143.675781 C 183.203125 145.433594 182.164062 147.015625 181.183594 148.664062 Z M 181.183594 148.664062 Z M 190.707031 148.390625 C 192.246094 148.390625 193.785156 148.390625 195.335938 148.390625 C 195.007812 146.25 195.6875 143.117188 193.871094 142.472656 C 192.921875 144.546875 191.710938 146.359375 190.707031 148.390625 Z M 190.707031 148.390625 Z M 179.707031 148.761719 C 181.027344 146.9375 182.121094 144.875 183.148438 142.746094 C 182.230469 141.828125 181.28125 140.921875 180.199219 140.15625 C 180.035156 143.027344 179.949219 145.96875 179.707031 148.761719 Z M 179.707031 148.761719 Z M 190.53125 146.261719 C 191.328125 144.625 192.203125 143.050781 192.957031 141.359375 C 192.0625 140.507812 190.96875 139.839844 190.09375 138.953125 C 190.257812 141.378906 190.234375 143.980469 190.53125 146.261719 Z M 190.53125 146.261719 Z M 184.632812 142.660156 C 185.5625 143.441406 186.21875 144.515625 187.023438 145.433594 C 186.925781 143.007812 186.839844 140.582031 186.863281 138.039062 C 186.554688 138.039062 186.25 138.039062 185.945312 138.039062 C 186.28125 140.003906 185.148438 141.25 184.632812 142.660156 Z M 184.632812 142.660156 Z M 180.394531 138.039062 C 180.546875 138.945312 181.390625 139.4375 181.957031 139.972656 C 182.546875 140.550781 183.09375 141.171875 183.804688 141.640625 C 184.207031 140.441406 185.070312 139.699219 185.015625 138.039062 C 183.507812 138.058594 181.597656 138.003906 180.394531 138.039062 Z M 180.394531 138.039062 Z M 190.105469 137.9375 C 190.160156 138.15625 189.984375 138.617188 190.191406 138.683594 C 191.351562 137.230469 192.878906 139.347656 193.699219 139.972656 C 193.972656 139.164062 194.460938 138.574219 194.722656 137.753906 C 193.128906 137.753906 191.679688 137.90625 190.105469 137.9375 Z M 190.105469 137.9375 Z M 191.03125 136.28125 C 192.234375 136.28125 193.4375 136.28125 194.636719 136.28125 C 194.746094 134.171875 194.417969 132.5 193.089844 131.835938 C 192.476562 133.398438 191.796875 134.871094 191.03125 136.28125 Z M 191.03125 136.28125 Z M 181.050781 136.550781 C 182.984375 136.519531 184.925781 136.5 186.785156 136.367188 C 186.980469 133.660156 184.765625 133.339844 183.746094 131.835938 C 182.863281 133.429688 181.871094 134.902344 181.050781 136.550781 Z M 181.050781 136.550781 Z M 180.679688 135.078125 C 181.335938 133.660156 182.089844 132.335938 182.917969 131.101562 C 182.316406 130.304688 181.574219 129.671875 180.703125 129.15625 C 180.691406 131.058594 180.4375 133.222656 180.679688 135.078125 Z M 180.679688 135.078125 Z M 194.386719 131.1875 C 194.375 130.367188 194.351562 129.5625 194.210938 128.875 C 193.742188 129.691406 193.414062 131.363281 194.386719 131.1875 Z M 194.386719 131.1875 Z M 184.488281 130.632812 C 185.148438 131.582031 185.957031 132.367188 186.695312 133.222656 C 186.597656 131.332031 186.644531 129.289062 186.445312 127.488281 C 185.855469 128.601562 185.179688 129.617188 184.488281 130.632812 Z M 184.488281 130.632812 Z M 180.8125 127.027344 C 181.621094 128.097656 182.773438 128.808594 183.660156 129.800781 C 184.273438 128.777344 184.917969 127.78125 185.527344 126.757812 C 183.957031 126.84375 181.96875 126.527344 180.8125 127.027344 Z M 180.8125 127.027344 Z M 189.503906 126.65625 C 189.765625 129.703125 189.65625 133.136719 190.117188 135.996094 C 190.671875 134.183594 191.480469 132.609375 192.070312 130.820312 C 191.394531 129.84375 189.996094 129.167969 190.050781 127.769531 C 191.417969 127.09375 191.722656 128.960938 192.636719 129.34375 C 192.957031 128.667969 193.023438 127.769531 193.378906 127.113281 C 193.601562 126.734375 194.070312 126.582031 194.039062 126.199219 C 192.605469 126.4375 190.816406 126.308594 189.503906 126.65625 Z M 189.503906 126.65625 Z M 181.554688 125.183594 C 183.125 125.03125 184.839844 125.019531 186.457031 124.898438 C 186.535156 123.949219 185.746094 123.316406 185.265625 122.777344 C 184.730469 122.179688 184.03125 121.480469 183.507812 121.019531 C 182.863281 122.40625 182.132812 123.71875 181.554688 125.183594 Z M 181.554688 125.183594 Z M 180.90625 123.324219 C 181.324219 122.070312 181.945312 121.03125 182.402344 119.820312 C 181.988281 119.21875 181.5625 118.628906 180.84375 118.335938 C 180.898438 119.972656 180.703125 121.851562 180.90625 123.324219 Z M 180.90625 123.324219 Z M 193.050781 117.589844 C 192.332031 118.804688 191.699219 119.972656 191 121.207031 C 190.386719 122.265625 189.394531 123.414062 189.503906 124.8125 C 191.03125 124.769531 192.617188 124.769531 194.039062 124.625 C 193.621094 122.363281 194.441406 118.878906 193.050781 117.589844 Z M 193.050781 117.589844 Z M 180.941406 116.019531 C 181.695312 116.785156 182.339844 117.644531 183.058594 118.433594 C 183.769531 117.484375 184.132812 114.480469 185.757812 115.660156 C 185.570312 117.363281 184.65625 118.324219 184.164062 119.71875 C 184.4375 120.179688 184.851562 120.792969 185.265625 121.292969 C 185.585938 121.6875 186.226562 122.550781 186.46875 122.40625 C 186.414062 119.71875 186.585938 117.265625 186.585938 114.632812 C 184.632812 114.6875 182.863281 114.542969 181.039062 114.457031 C 181.117188 115.078125 180.90625 115.441406 180.941406 116.019531 Z M 180.941406 116.019531 Z M 189.550781 114.457031 C 189.382812 116.488281 189.375 119.164062 189.527344 121.207031 C 190.257812 119.503906 191.273438 118.070312 192.039062 116.390625 C 191.722656 115.757812 191.054688 115.472656 191.21875 114.359375 C 190.628906 114.359375 190.007812 114.324219 189.550781 114.457031 Z M 189.550781 114.457031 Z M 192.234375 114.273438 C 192.332031 114.6875 192.484375 115.058594 192.878906 115.1875 C 192.988281 114.773438 193.402344 114.664062 193.4375 114.171875 C 193.140625 114.304688 192.660156 114.257812 192.234375 114.273438 Z M 192.234375 114.273438 Z M 183.738281 110.296875 C 183.3125 111.15625 182.285156 111.921875 182.25 112.886719 C 183.386719 112.667969 184.925781 112.851562 186.226562 112.785156 C 185.691406 112.019531 184.613281 111.019531 183.738281 110.296875 Z M 183.738281 110.296875 Z M 190.859375 109.828125 C 190.402344 110.851562 189.339844 111.277344 189.460938 112.886719 C 190.714844 112.960938 192.320312 113.15625 193.535156 112.972656 C 193.152344 111.410156 191.84375 110.785156 190.859375 109.828125 Z M 190.859375 109.828125 Z M 189.472656 109.640625 C 189.789062 109.484375 189.972656 109.214844 190.039062 108.808594 C 189.921875 108.613281 189.765625 108.460938 189.570312 108.351562 C 189.550781 109.027344 189.550781 109.257812 189.472656 109.640625 Z M 189.472656 109.640625 Z M 191.699219 108.808594 C 192.300781 109.476562 192.738281 110.296875 193.449219 110.84375 C 193.378906 109.410156 193.425781 107.859375 193.183594 106.59375 C 192.769531 107.414062 192.125 108.003906 191.699219 108.808594 Z M 191.699219 108.808594 Z M 190.96875 107.609375 C 191.359375 106.835938 191.875 106.167969 192.355469 105.476562 C 191.441406 105.476562 190.511719 105.476562 189.582031 105.476562 C 189.777344 106.449219 190.402344 107.007812 190.96875 107.609375 Z M 190.96875 107.609375 Z M 181.257812 105.578125 C 181.410156 107.859375 181.390625 110.613281 181.136719 112.785156 C 181.878906 111.769531 182.460938 110.589844 183.09375 109.453125 C 182.699219 108.753906 181.933594 108.40625 181.902344 107.335938 C 182.773438 106.246094 183.3125 108.035156 183.835938 108.441406 C 184.109375 107.664062 185.671875 105.980469 186.25 107.523438 C 185.59375 108.035156 184.972656 108.59375 184.480469 109.269531 C 185.070312 110.285156 185.824219 111.136719 186.695312 111.855469 C 186.644531 109.652344 186.773438 107.617188 186.804688 105.476562 C 184.992188 105.546875 182.929688 105.359375 181.257812 105.578125 Z M 181.257812 105.578125 Z M 181.269531 102.988281 C 181.269531 103.261719 181.269531 103.535156 181.269531 103.820312 C 183.117188 103.820312 184.972656 103.820312 186.816406 103.820312 C 186.042969 102.652344 184.742188 102.019531 183.867188 100.945312 C 182.839844 101.472656 182.511719 102.683594 181.269531 102.988281 Z M 181.269531 102.988281 Z M 190.160156 100.484375 C 189.59375 101.21875 189.515625 102.441406 189.59375 103.820312 C 190.664062 104.003906 192.082031 103.851562 193.199219 104.003906 C 193.269531 103.25 193.097656 102.757812 193.109375 102.0625 C 192.039062 101.625 191.21875 100.9375 190.160156 100.484375 Z M 190.160156 100.484375 Z M 181.464844 102.332031 C 181.980469 101.675781 182.449219 100.980469 183.039062 100.398438 C 182.664062 99.789062 182.175781 99.296875 181.5625 98.914062 C 181.621094 100.082031 181.226562 101.296875 181.464844 102.332031 Z M 181.464844 102.332031 Z M 181.859375 94.9375 C 181.695312 95.386719 181.847656 96.164062 181.671875 96.601562 C 182.941406 96.9375 183.191406 98.28125 184.152344 98.914062 C 184.875 98.335938 185.15625 97.320312 186.195312 97.070312 C 186.46875 97.167969 186.554688 97.441406 186.652344 97.710938 C 186.183594 98.53125 185.386719 99.035156 184.894531 99.84375 C 185.082031 100.222656 185.550781 100.550781 185.898438 100.945312 C 186.21875 101.296875 186.5 101.996094 186.828125 101.785156 C 186.816406 99.550781 186.828125 97.332031 186.949219 95.210938 C 185.125 95.246094 183.441406 95.148438 181.859375 94.9375 Z M 181.859375 94.9375 Z M 186.042969 89.664062 C 184.875 91.191406 183.398438 92.40625 182.328125 94.011719 C 183.78125 94.1875 185.367188 94.238281 186.949219 94.296875 C 187.046875 93.039062 187.21875 91.433594 187.058594 90.222656 C 186.738281 90.011719 186.46875 89.761719 186.042969 89.664062 Z M 186.042969 89.664062 Z M 193.347656 90.222656 C 193.511719 89.894531 193.566406 89.457031 193.535156 88.929688 C 193.109375 88.988281 192.957031 88.769531 192.519531 88.835938 C 192.574219 89.523438 192.964844 89.871094 193.347656 90.222656 Z M 193.347656 90.222656 Z M 190.03125 88.648438 C 189.8125 89.335938 189.898438 90.316406 189.734375 91.050781 C 190.015625 91.476562 190.511719 91.703125 190.5625 92.351562 C 190.125 92.425781 190.160156 92.023438 189.734375 92.078125 C 189.765625 92.875 189.703125 93.597656 189.632812 94.296875 C 190.847656 94.339844 192.300781 94.152344 193.050781 94.667969 C 192.082031 95.027344 190.761719 95.015625 189.625 95.210938 C 189.777344 96.140625 189.285156 97.710938 189.898438 98.171875 C 190.628906 97.703125 190.652344 95.289062 191.753906 95.496094 C 192.921875 95.714844 191.445312 98.390625 191 99.011719 C 191.460938 99.777344 192.269531 100.203125 193.023438 100.675781 C 192.933594 98.039062 193.394531 95.964844 193.335938 93.367188 C 192.988281 92.953125 192.769531 92.394531 192.78125 91.609375 C 192.039062 90.753906 190.726562 90.460938 190.859375 88.746094 C 190.554688 88.734375 190.402344 88.59375 190.03125 88.648438 Z M 190.03125 88.648438 Z M 183.367188 88.375 C 183.378906 88.792969 182.953125 88.753906 182.535156 88.746094 C 182.394531 90.054688 182.042969 91.660156 182.140625 92.910156 C 182.992188 91.5 184.21875 90.460938 185.027344 89.019531 C 184.402344 88.878906 184.074219 88.429688 183.367188 88.375 Z M 183.367188 88.375 Z M 195.316406 83.46875 C 195.675781 83.546875 195.5 82.226562 195.414062 82.457031 C 195.476562 82.894531 195.304688 83.089844 195.316406 83.46875 Z M 195.316406 83.46875 Z M 192.167969 83.382812 C 192.453125 83.382812 192.726562 83.382812 193 83.382812 C 192.695312 80.816406 192.835938 77.324219 192.671875 74.875 C 192.605469 74.875 192.539062 74.875 192.484375 74.875 C 192.453125 77.714844 191.941406 80.589844 192.167969 83.382812 Z M 192.167969 83.382812 Z M 188.410156 74.589844 C 188.226562 77.289062 188.300781 80.238281 188.105469 82.914062 C 188.566406 83.078125 189.261719 83.003906 189.765625 83.097656 C 189.644531 80.238281 189.175781 77.738281 189.242188 74.691406 C 188.871094 74.753906 188.714844 74.601562 188.410156 74.589844 Z M 188.410156 74.589844 Z M 192.496094 72.472656 C 193.75 72.417969 192.898438 70.746094 192.3125 70.617188 C 192.539062 71.074219 192.257812 72.023438 192.496094 72.472656 Z M 192.496094 72.472656 Z M 179.828125 71.171875 C 180.167969 71.640625 179.9375 72.660156 180.371094 73.019531 C 180.472656 73.019531 180.558594 73.019531 180.65625 73.019531 C 180.953125 72.429688 180.898438 70.976562 180.753906 70.246094 C 180.449219 70.558594 179.949219 70.679688 179.828125 71.171875 Z M 179.828125 71.171875 Z M 188.238281 72.558594 C 188.605469 72.527344 189.121094 72.648438 189.351562 72.472656 C 189.230469 71.578125 189.550781 70.625 189.363281 69.972656 C 189.144531 70.964844 187.703125 71.117188 188.238281 72.558594 Z M 188.238281 72.558594 Z M 182.699219 69.226562 C 183.3125 70.039062 183.28125 71.488281 183.332031 72.84375 C 184.023438 72.820312 184.597656 72.691406 185.375 72.746094 C 185.617188 71.316406 185.550781 69.960938 184.925781 69.140625 C 184.175781 69.164062 183.3125 69.074219 182.699219 69.226562 Z M 182.699219 69.226562 Z M 131.5625 323.910156 C 130 321.683594 128.308594 319.597656 126.410156 317.707031 C 119.042969 327.558594 111.773438 337.726562 103.175781 346.464844 C 102.585938 347.066406 101.964844 347.707031 101.320312 348.320312 C 100.75 348.855469 100.019531 349.753906 99.089844 349.613281 C 99.484375 348.027344 100.71875 346.867188 101.699219 345.636719 C 108.410156 337.191406 114.875 328.488281 120.945312 319.09375 C 126.941406 309.820312 132.828125 300.65625 138.539062 290.796875 C 139.242188 289.582031 140.757812 287.660156 140.867188 286.632812 C 141.007812 285.289062 139.746094 284.132812 139.589844 283.027344 C 139.535156 282.65625 139.710938 282.210938 139.679688 281.742188 C 139.632812 281.042969 139.292969 280.179688 139.140625 279.335938 C 138.804688 277.558594 137.746094 272.808594 139.90625 272.398438 C 140.484375 272.292969 140.933594 272.632812 141.480469 272.675781 C 143.457031 272.816406 145.925781 272.136719 147.945312 272.304688 C 147.96875 270.796875 148.753906 269.660156 149.355469 268.238281 C 150.523438 265.464844 151.59375 262.421875 152.804688 259.632812 C 154.433594 255.917969 156.269531 252.128906 157.570312 248.261719 C 158.265625 246.199219 158.671875 244.027344 159.261719 241.886719 C 160.976562 235.683594 162.660156 229.566406 164.972656 223.480469 C 164.789062 223.085938 164.132812 223.078125 164.425781 222.464844 C 163.761719 222.0625 163.082031 221.667969 162.863281 220.894531 C 162.386719 219.246094 163.214844 216.730469 164.359375 216.175781 C 164.492188 216.109375 164.796875 216.1875 165.007812 216.078125 C 165.324219 215.925781 165.835938 215.433594 166.578125 215.617188 C 171.984375 190.421875 176.125 150.71875 176.570312 121.9375 C 176.847656 116.640625 177.511719 111.441406 177.839844 106.136719 C 177.992188 103.535156 177.523438 100.785156 177.414062 98.082031 C 177.292969 95.332031 177.292969 92.570312 177.160156 89.851562 C 177.09375 88.40625 176.636719 86.964844 177.273438 85.6875 C 176.726562 84.617188 175.578125 84.015625 175.4375 82.269531 C 175.328125 80.960938 175.632812 79.375 175.730469 77.464844 C 175.882812 74.601562 175.25 71.804688 177.425781 71.542969 C 178.605469 69.011719 180.503906 66.726562 184.554688 67.382812 C 185.324219 60.324219 185.046875 51.980469 185.386719 44.445312 C 185.476562 42.753906 184.972656 37.71875 186.347656 37.511719 C 187.964844 37.269531 187.984375 40.417969 188.082031 42.042969 C 188.226562 44.445312 188.164062 46.117188 188.25 48.148438 C 188.3125 49.984375 188.597656 52.003906 188.683594 53.96875 C 188.773438 56.144531 188.605469 58.261719 188.753906 60.171875 C 188.933594 62.632812 189.613281 64.847656 190.015625 67.109375 C 190.433594 66.769531 190.945312 67.316406 191.492188 67.292969 C 192.148438 67.261719 193.226562 66.398438 193.710938 67.566406 C 194.027344 67.285156 194.308594 66.988281 195.007812 67.109375 C 195.828125 67.894531 195.585938 69.371094 196.015625 70.617188 C 196.527344 72.132812 198.316406 72.625 198.863281 74.046875 C 199.324219 75.214844 198.492188 76.675781 198.484375 78.296875 C 198.472656 80.578125 199.617188 82.792969 199.277344 85.6875 C 199.214844 86.246094 199.074219 86.550781 198.625 86.988281 C 199.125 88.472656 198.035156 89.816406 197.410156 90.777344 C 197.96875 100.367188 198.011719 110.023438 198.59375 119.632812 C 200.316406 148.28125 202.71875 178.375 207.207031 206.835938 C 207.46875 208.496094 208.214844 210.441406 207.929688 212.097656 C 207.863281 212.484375 207.621094 212.960938 207.460938 213.398438 C 207.023438 214.558594 206.269531 214.953125 205.328125 213.957031 C 205.167969 214.164062 205.167969 214.523438 204.6875 214.414062 C 203.441406 213.289062 202.480469 211.894531 201.277344 210.714844 C 199.988281 212.023438 199.015625 213.640625 198.023438 215.246094 C 201.550781 215.398438 205.351562 215.585938 208.292969 215.160156 C 209.808594 214.929688 211.195312 214.589844 211.894531 215.992188 C 212.660156 217.515625 211.820312 220.480469 211.675781 222.367188 C 211.589844 223.699219 211.839844 224.070312 210.652344 224.585938 C 215.621094 241.414062 222.171875 256.652344 228.964844 271.660156 C 229.972656 271.921875 230.4375 271.035156 231.085938 271.015625 C 231.511719 270.992188 231.796875 271.484375 232.382812 271.558594 C 232.90625 271.636719 233.453125 271.265625 233.957031 271.375 C 235.429688 271.722656 235.695312 273.953125 236.152344 275.820312 C 236.699219 278.035156 237.605469 280.058594 236.960938 281.742188 C 236.578125 282.757812 235.3125 283.652344 234.097656 282.757812 C 241.90625 300.089844 251.445312 317.804688 261.90625 333.523438 C 264.441406 337.335938 267.117188 341.363281 270.285156 344.804688 C 271.34375 345.964844 272.46875 347.304688 273.59375 348.035156 C 274.628906 348.714844 275.820312 348.867188 275.898438 350.082031 C 275.953125 350.824219 275.417969 351.640625 274.785156 351.828125 C 272.707031 352.460938 271.738281 349.851562 270.164062 349.523438 C 269.160156 349.304688 267.628906 349.644531 266.285156 349.707031 C 262.652344 349.875 257.84375 349.773438 254.535156 349.980469 C 254.394531 350.460938 255.429688 351.347656 254.808594 352.011719 C 253.605469 352.167969 253.367188 350.570312 252.601562 349.980469 C 249.925781 349.863281 246.890625 349.699219 244.179688 349.335938 C 243.285156 349.21875 242.3125 348.933594 241.59375 348.964844 C 241.253906 348.988281 240.828125 349.269531 240.488281 349.242188 C 239.964844 349.195312 239.964844 348.804688 239.375 348.59375 C 238 348.101562 235.78125 348.464844 235.964844 346.933594 C 236.164062 345.253906 239.109375 346.519531 240.6875 346.007812 C 241.375 345.789062 242.148438 344.039062 242.640625 343.328125 C 243.417969 342.171875 243.875 341.679688 244.585938 340.644531 C 242.554688 339.488281 240.433594 338.394531 238.316406 337.3125 C 238.261719 339.078125 240.164062 340.152344 239.035156 341.84375 C 239.453125 342.902344 240.476562 343.351562 240.410156 344.890625 C 239.15625 346.136719 238.054688 344.605469 237.367188 343.875 C 234.90625 341.308594 233.269531 338.242188 231.390625 335.179688 C 228.898438 331.140625 226.398438 326.726562 224.125 322.796875 C 220.109375 321.027344 217.695312 317.847656 214.363281 315.675781 C 210.914062 313.4375 207.242188 311.941406 202.175781 311.058594 C 197.683594 310.257812 192.726562 309.175781 187.101562 309.199219 C 182.011719 309.230469 176.410156 309.808594 172.300781 311.242188 C 168.445312 312.574219 164.425781 314.867188 161.085938 316.976562 C 157.589844 319.179688 154.53125 321.628906 151.539062 324.269531 C 148.492188 326.957031 145.730469 329.789062 143.644531 333.335938 C 142.59375 335.105469 141.613281 336.917969 140.660156 338.796875 C 139.710938 340.65625 138.488281 342.390625 137.679688 344.25 C 137.492188 344.671875 137.492188 345.210938 137.296875 345.546875 C 136.6875 346.628906 135.308594 347.238281 134.695312 348.507812 C 135.953125 348.628906 137.265625 348.714844 137.839844 349.523438 C 137.273438 350.441406 135.953125 350.546875 134.871094 350.625 C 128.582031 351.085938 122.125 351.21875 115.539062 351.464844 C 114.292969 351.511719 112.875 351.554688 111.664062 351.464844 C 110.667969 351.378906 109.238281 351.292969 108.984375 350.167969 C 109.628906 349.554688 110.636719 349.65625 111.488281 349.523438 C 117.429688 348.59375 124.765625 348.421875 131.738281 348.40625 C 132.097656 348.113281 132.160156 347.535156 132.394531 347.121094 C 130.4375 345.351562 128.230469 343.832031 126.125 342.21875 C 125.480469 343.253906 124.757812 344.070312 123.894531 345.175781 C 123.292969 345.941406 122.355469 347.859375 121.296875 347.664062 C 120.117188 347.457031 120.890625 345.667969 121.207031 344.992188 C 121.699219 343.960938 122.179688 343.320312 122.605469 342.488281 C 119.800781 344.0625 117.003906 345.601562 113.988281 347.121094 C 113.09375 347.566406 112.023438 348.464844 110.84375 347.949219 C 110.710938 346.683594 112.394531 346.058594 113.253906 345.449219 C 116.152344 343.40625 119.4375 341.351562 122.53125 339.53125 C 121.078125 338.566406 118.714844 336.371094 116.804688 335.464844 C 116.117188 335.140625 115.058594 335.09375 114.972656 334.351562 C 114.839844 333.421875 115.714844 333.183594 116.546875 332.875 C 116.566406 332.332031 115.746094 332.628906 115.898438 331.949219 C 117.714844 330.101562 121.164062 328.914062 123.773438 327.601562 C 126.472656 326.246094 129.191406 324.980469 131.5625 323.910156 " fill-opacity="1" fill-rule="evenodd"/></g></svg>